<svg xmlns="http://www.w3.org/2000/svg" viewBox="0 0 1034.49 455.62"><defs><style>.cls-1{fill:#fff;}</style></defs><title>2blocks</title><g id="Слой_2" data-name="Слой 2"><g id="Слой_1-2" data-name="Слой 1"><path class="cls-1" d="M210.83,198.82l59.11,133.52-2.11-.41c-.51-.09-1.18-.22-1.9-.39-16.76-3.27-81.58-16-107.49-21.63a1.58,1.58,0,0,1,.11-.38,27.36,27.36,0,0,0,.68-6.42c.09-7.66.39-13.53-.73-14.3,10.41-17.9,26.29-45.18,37.8-65l4.75-8.14c.73-1.26,1.43-2.49,2.11-3.62s1.27-2.15,1.84-3.15l.13-.24c.51-.92,1-1.78,1.49-2.57Z"/><path d="M269.94,332.83h-.1l-2.11-.41c-.51-.09-1.19-.22-1.92-.39-19.85-3.88-82.23-16.18-107.48-21.63a.5.5,0,0,1-.39-.57,2.05,2.05,0,0,1,.14-.49,27.26,27.26,0,0,0,.64-6.24c0-1.17,0-2.3.05-3.37.08-4.92.16-10-.57-10.51a.5.5,0,0,1-.15-.66l5.3-9.1c10-17.22,22.81-39.2,32.51-55.92l5.1-8.75c.6-1,1.19-2.07,1.76-3q1-1.65,1.84-3.14l.13-.23c.38-.68.77-1.34,1.13-2l4.57-7.86a.48.48,0,0,1,.46-.25.5.5,0,0,1,.43.3L270.4,332.13a.5.5,0,0,1-.46.7Zm-110.88-23.3C184.63,315,246.3,327.19,266,331c.73.17,1.39.29,1.9.38l1.17.23L210.77,199.92l-4.08,7c-.36.61-.74,1.26-1.12,1.94l-.13.24q-.86,1.5-1.84,3.16c-.56.95-1.15,2-1.75,3l-.35.61L196.73,224c-9.7,16.71-22.49,38.7-32.51,55.92l-5.11,8.79c.79,1.19.78,4.5.67,11,0,1.07,0,2.2,0,3.37A28.26,28.26,0,0,1,159.06,309.53Z"/><path class="cls-1" d="M65.69,167.4l145.14,31.42-4.21,7.25-1.49,2.57-.13.24L203.15,212,201,215.64l-4.75,8.14-37.86,65c-1.18-.64-3,.27-8,5.74a23.79,23.79,0,0,1-7.15,5.32Z"/><path d="M143.24,300.31a.51.51,0,0,1-.44-.23L65.25,167.65a.5.5,0,0,1,.54-.74l145.14,31.42a.5.5,0,0,1,.33.74l-14.53,25-37.86,65a.5.5,0,0,1-.67.19c-1-.56-3.26,1.13-7.44,5.64a24.24,24.24,0,0,1-7.25,5.41A.55.55,0,0,1,143.24,300.31ZM66.69,168.13l76.73,131a22.91,22.91,0,0,0,6.6-5c4.41-4.76,6.62-6.41,8.2-6l51.83-89Z"/><path class="cls-1" d="M109.07,347.54l25.31-26.42c-1,2.59-2,2.89,5.42.06s10.31-.29,14-4.18c2.31-2.41,3.84-4.2,4.68-7.1a1.58,1.58,0,0,1,.11-.38l107.38,22,1.9.39,2.11.41-39.4,18.6-55.91,11.73Z"/><path d="M174.62,363.17h-.11L109,348a.5.5,0,0,1-.25-.83L134,320.78a.5.5,0,0,1,.83.52c-.12.32-.24.61-.35.87s-.14.34-.2.49c.69-.16,2.33-.79,4.6-1.66l.72-.28a25.43,25.43,0,0,1,7.73-1.67c2.49-.21,4.13-.36,6-2.39,2.22-2.32,3.74-4.05,4.57-6.9a1.71,1.71,0,0,1,.12-.43.5.5,0,0,1,.56-.3l109.28,22.39,2.11.41a.5.5,0,0,1,.12.94l-39.4,18.6-.11,0-55.91,11.73ZM110,347.26l64.59,14.9,55.75-11.7,38-17.93-2.52-.51L158.9,310.11c-.91,3-2.56,4.93-4.78,7.24s-4.16,2.48-6.68,2.7a24.59,24.59,0,0,0-7.46,1.6l-.73.28c-4.64,1.78-5.34,2.06-5.85,1.54a.67.67,0,0,1-.2-.4Z"/><path class="cls-1" d="M143.23,299.82a11.43,11.43,0,0,0-7.07,8.83c-1.55,7.57-.82,9.93-1.79,12.47l-25.31,26.42L99.92,327l-13.75-4.53L89,318.73,47.42,252,65.69,167.4Z"/><path d="M109.07,348H109a.5.5,0,0,1-.37-.29l-9.05-20.35L86,322.93a.5.5,0,0,1-.24-.78l2.6-3.45L47,252.3a.5.5,0,0,1-.06-.37L65.2,167.29a.5.5,0,0,1,.92-.15l77.55,132.42a.5.5,0,0,1-.2.7l-.42.22a11,11,0,0,0-3.42,2.34,12.12,12.12,0,0,0-2.93,5.78l0,.16a58.27,58.27,0,0,0-1.12,8.38,13.86,13.86,0,0,1-.69,4.17.5.5,0,0,1-.11.17l-25.31,26.42A.5.5,0,0,1,109.07,348ZM87,322.2l13.09,4.31a.5.5,0,0,1,.3.27l8.84,19.88,24.72-25.8a13.41,13.41,0,0,0,.59-3.79,59.28,59.28,0,0,1,1.14-8.51l0-.16a13.08,13.08,0,0,1,3.16-6.24,11.64,11.64,0,0,1,3.66-2.54L65.9,168.76l-18,83.18,41.46,66.53a.5.5,0,0,1,0,.57Z"/><path class="cls-1" d="M139.25,302.49a12.72,12.72,0,0,1,4-2.67,23.79,23.79,0,0,0,7.15-5.32c5.06-5.47,6.87-6.37,8-5.74l.06,0c1.13.77.82,6.63.73,14.3a27.36,27.36,0,0,1-.68,6.42,1.58,1.58,0,0,0-.11.38c-.84,2.9-2.37,4.68-4.68,7.1-3.65,3.89-6.6,1.32-14,4.18s-6.39,2.53-5.42-.06.25-4.9,1.79-12.47A12.63,12.63,0,0,1,139.25,302.49Z"/><path d="M134,323.7a.73.73,0,0,1-.58-.23c-.38-.39-.16-.91.17-1.69.1-.24.22-.52.33-.83a13,13,0,0,0,.63-3.89,59.28,59.28,0,0,1,1.14-8.51l0-.16a13.08,13.08,0,0,1,3.16-6.24h0a11.77,11.77,0,0,1,3.71-2.56l.42-.21a23.43,23.43,0,0,0,7-5.22c4.85-5.24,7-6.71,8.65-5.84l.12.08c1.11.75,1.11,4,1,11.34,0,1.07,0,2.2,0,3.37a27.9,27.9,0,0,1-.69,6.54,1.5,1.5,0,0,0-.1.34c-.9,3.12-2.56,5-4.82,7.37s-4.16,2.48-6.68,2.7a24.59,24.59,0,0,0-7.46,1.6l-.73.28C136,323.2,134.65,323.7,134,323.7Zm5.64-20.88a12.12,12.12,0,0,0-2.93,5.78l0,.16a58.27,58.27,0,0,0-1.12,8.38,13.86,13.86,0,0,1-.69,4.17c-.12.32-.24.61-.35.86s-.14.34-.2.49c.69-.16,2.33-.79,4.6-1.66l.72-.28a25.43,25.43,0,0,1,7.73-1.67c2.49-.21,4.13-.36,6-2.39,2.23-2.32,3.74-4.05,4.57-6.9a1.71,1.71,0,0,1,.12-.43,27.26,27.26,0,0,0,.64-6.24c0-1.17,0-2.3.05-3.37.08-4.92.16-10-.57-10.51-1.05-.58-3.28,1.11-7.46,5.62a24.26,24.26,0,0,1-7.25,5.41l-.45.24A11,11,0,0,0,139.62,302.82Z"/><polygon class="cls-1" points="112.62 177.56 118.83 162.31 79.83 148.65 65.69 167.4 112.62 177.56"/><path d="M112.62,178.06h-.11L65.58,167.89a.5.5,0,0,1-.29-.79l14.14-18.75a.5.5,0,0,1,.56-.17l39,13.66a.5.5,0,0,1,.3.66l-6.2,15.25A.5.5,0,0,1,112.62,178.06Zm-46.07-11L112.32,177l5.85-14.37L80,149.24Z"/><polygon class="cls-1" points="56.37 88.4 79.83 148.65 65.69 167.4 60.54 191.22 12.05 178.33 56.37 88.4"/><path d="M60.54,191.72l-.13,0L11.93,178.81a.5.5,0,0,1-.32-.7L55.92,88.18a.53.53,0,0,1,.47-.28.5.5,0,0,1,.44.32l23.46,60.25a.5.5,0,0,1-.07.48L66.15,167.61,61,191.33a.5.5,0,0,1-.23.32A.51.51,0,0,1,60.54,191.72ZM12.77,178l47.39,12.6,5-23.31a.49.49,0,0,1,.09-.2l14-18.52L56.31,89.64Z"/><polygon class="cls-1" points="47.42 252.03 12.05 178.33 60.54 191.22 47.42 252.03"/><path d="M47.42,252.53a.5.5,0,0,1-.45-.28L11.6,178.55a.5.5,0,0,1,.07-.54.51.51,0,0,1,.51-.16l48.49,12.89a.5.5,0,0,1,.36.59L47.91,252.14a.5.5,0,0,1-.43.39ZM13,179.09,47.24,250.5,60,191.58Z"/><polygon class="cls-1" points="118.83 162.31 126.56 147.13 56.37 88.4 79.83 148.65 118.83 162.31"/><path d="M118.83,162.81a.49.49,0,0,1-.17,0l-39-13.66a.5.5,0,0,1-.3-.29L55.9,88.58a.5.5,0,0,1,.79-.57l70.19,58.73a.5.5,0,0,1,.12.61l-7.73,15.18A.5.5,0,0,1,118.83,162.81ZM80.21,148.26l38.37,13.44,7.35-14.43L57.54,90Z"/><polygon class="cls-1" points="74.53 349.51 99.92 326.99 109.07 347.55 113.83 358.32 108.19 384.36 74.53 349.51"/><path d="M108.19,384.86a.5.5,0,0,1-.36-.15L74.17,349.86a.5.5,0,0,1,0-.72l25.4-22.53a.5.5,0,0,1,.79.17l13.9,31.33a.5.5,0,0,1,0,.31l-5.64,26a.5.5,0,0,1-.35.38ZM75.25,349.54l32.65,33.8,5.41-25-4.69-10.63-8.87-19.93Z"/><polygon class="cls-1" points="50.5 315.27 86.18 322.46 99.92 326.99 74.53 349.51 50.5 315.27"/><path d="M74.53,350h-.06a.5.5,0,0,1-.35-.21l-24-34.25a.5.5,0,0,1,.51-.78L86.27,322l13.81,4.55a.5.5,0,0,1,.17.85l-25.4,22.53A.5.5,0,0,1,74.53,350Zm-22.9-34,23,32.76,24.33-21.58L86,322.93Z"/><polygon class="cls-1" points="58.87 370.27 50.5 315.27 74.53 349.51 58.87 370.27"/><path d="M58.87,370.77l-.12,0a.5.5,0,0,1-.37-.41l-8.37-55a.5.5,0,0,1,.9-.36l24,34.25a.5.5,0,0,1,0,.59L59.27,370.57A.5.5,0,0,1,58.87,370.77ZM51.31,317.3,59.18,369,73.91,349.5Z"/><polygon class="cls-1" points="71.96 375.94 58.87 370.27 74.53 349.51 71.96 375.94"/><path d="M72,376.44a.5.5,0,0,1-.2,0l-13.09-5.67a.5.5,0,0,1-.2-.76l15.66-20.75a.5.5,0,0,1,.9.35L72.45,376a.5.5,0,0,1-.5.45Zm-12.31-6.38,11.88,5.15,2.33-24Z"/><polygon class="cls-1" points="108.19 384.36 71.96 375.94 74.53 349.51 108.19 384.36"/><path d="M108.19,384.86h-.11l-36.23-8.42a.5.5,0,0,1-.38-.54L74,349.47a.5.5,0,0,1,.86-.3L108.55,384a.5.5,0,0,1-.36.85ZM72.5,375.55l34.15,7.94L74.92,350.64Z"/><polygon class="cls-1" points="50.5 315.27 0.5 289.99 35.6 279.65 50.5 315.27"/><path d="M50.5,315.77a.5.5,0,0,1-.23-.05l-50-25.28a.5.5,0,0,1,.08-.93l35.1-10.33a.5.5,0,0,1,.6.29L51,315.08a.5.5,0,0,1-.46.69ZM1.85,290.11l47.66,24.1-14.2-34Z"/><polygon class="cls-1" points="88.98 318.73 86.18 322.46 50.5 315.27 35.6 279.65 88.98 318.73"/><path d="M86.18,323h-.1L50.4,315.76a.5.5,0,0,1-.36-.3l-14.9-35.61a.5.5,0,0,1,.76-.6l53.38,39.08a.5.5,0,0,1,.1.7l-2.81,3.72A.5.5,0,0,1,86.18,323Zm-35.32-8.12L86,321.9l2.31-3.07L36.75,281.12Z"/><polygon class="cls-1" points="0.5 289.99 12.34 242.19 35.6 279.65 0.5 289.99"/><path d="M.5,290.49a.5.5,0,0,1-.49-.62l11.84-47.8a.5.5,0,0,1,.41-.37.51.51,0,0,1,.5.23L36,279.39a.5.5,0,0,1-.28.74L.64,290.47Zm12-47L1.19,289.26l33.63-9.9Z"/><polygon class="cls-1" points="44.48 245.91 35.6 279.65 12.34 242.19 44.48 245.91"/><path d="M35.6,280.15a.5.5,0,0,1-.42-.24L11.92,242.45a.5.5,0,0,1,.48-.76l32.14,3.72A.5.5,0,0,1,45,246l-8.88,33.75a.5.5,0,0,1-.41.37ZM13.31,242.81l22.1,35.6,8.44-32.06Z"/><path class="cls-1" d="M89,318.73,35.6,279.65l8.88-33.74Z"/><path d="M89,319.23a.5.5,0,0,1-.3-.1L35.3,280.06a.5.5,0,0,1-.19-.53L44,245.78a.5.5,0,0,1,.41-.37.51.51,0,0,1,.5.23l44.5,72.82a.5.5,0,0,1-.43.76ZM36.17,279.45l51.07,37.38L44.66,247.17Z"/><polygon class="cls-1" points="108.19 384.36 129.56 419.4 137.85 401.49 113.83 358.32 108.19 384.36"/><path d="M129.56,419.9a.5.5,0,0,1-.43-.24l-21.37-35a.5.5,0,0,1-.06-.37l5.64-26a.5.5,0,0,1,.93-.14l24,43.17a.5.5,0,0,1,0,.45L130,419.61a.5.5,0,0,1-.43.29Zm-20.84-35.62,20.78,34.07,7.79-16.83L114,359.72Z"/><polygon class="cls-1" points="109.07 347.55 174.62 362.67 189.47 385.8 109.07 347.55"/><path d="M189.46,386.3a.49.49,0,0,1-.21,0L108.85,348a.5.5,0,0,1,.33-.94l65.55,15.12a.5.5,0,0,1,.31.22l14.84,23.13a.5.5,0,0,1-.42.77Zm-76-37.24L188.1,384.6l-13.79-21.49Z"/><polygon class="cls-1" points="137.85 401.49 189.47 385.8 109.07 347.55 113.83 358.32 137.85 401.49"/><path d="M137.85,402a.5.5,0,0,1-.44-.26l-24-43.17-4.78-10.82a.5.5,0,0,1,.67-.65l80.4,38.25a.5.5,0,0,1-.07.93L138,402Zm-27.78-53.41,4.21,9.54,23.8,42.77,50-15.2Z"/><polygon class="cls-1" points="174.62 362.67 229.71 385.65 189.47 385.8 174.62 362.67"/><path d="M189.46,386.3a.5.5,0,0,1-.42-.23L174.2,362.94a.5.5,0,0,1,.61-.73l55.09,23a.5.5,0,0,1-.19,1l-40.25.14Zm-13.56-22.55,13.83,21.55,37.5-.13Z"/><polygon class="cls-1" points="129.56 419.4 232.56 448.25 246.95 429.17 137.85 401.49 129.56 419.4"/><path d="M232.56,448.75l-.13,0-103-28.85a.5.5,0,0,1-.32-.69l8.29-17.91A.5.5,0,0,1,138,401l109.1,27.68a.5.5,0,0,1,.28.79L233,448.55A.5.5,0,0,1,232.56,448.75Zm-102.3-29.68,102.1,28.6,13.74-18.21-108-27.39Z"/><polygon class="cls-1" points="229.71 385.65 246.95 429.17 189.47 385.8 229.71 385.65"/><path d="M247,429.67a.5.5,0,0,1-.3-.1L189.16,386.2a.5.5,0,0,1,.3-.9l40.25-.14h0a.5.5,0,0,1,.46.32L247.42,429a.5.5,0,0,1-.46.68Zm-56-43.37,54.88,41.4-16.46-41.54Z"/><polygon class="cls-1" points="137.85 401.49 246.95 429.17 189.47 385.8 137.85 401.49"/><path d="M247,429.67l-.12,0L137.72,402a.5.5,0,0,1,0-1l51.62-15.69a.5.5,0,0,1,.45.08l57.49,43.37a.5.5,0,0,1-.3.9ZM139.71,401.44l105,26.63-55.3-41.72Z"/><polygon class="cls-1" points="79.4 107.68 116.25 75.62 120.42 134.45 115.35 137.76 79.4 107.68"/><path d="M115.35,138.26a.5.5,0,0,1-.32-.12L79.08,108.06a.5.5,0,0,1,0-.76l36.84-32.06a.5.5,0,0,1,.83.34l4.17,58.83a.5.5,0,0,1-.23.45l-5.07,3.3A.5.5,0,0,1,115.35,138.26ZM80.17,107.67l35.21,29.46,4.52-2.94-4.08-57.54Z"/><polygon class="cls-1" points="147.4 95.27 116.25 75.62 120.42 134.45 130.96 134.35 147.4 95.27"/><path d="M120.42,135a.5.5,0,0,1-.5-.46l-4.17-58.83a.5.5,0,0,1,.77-.46l31.15,19.65a.5.5,0,0,1,.19.62l-16.44,39.08a.5.5,0,0,1-.46.31l-10.54.1Zm-3.61-58.38,4.07,57.38,9.74-.1,16.15-38.38Z"/><polygon class="cls-1" points="126.56 147.13 115.35 137.76 120.42 134.45 130.96 134.35 126.56 147.13"/><path d="M126.56,147.63a.5.5,0,0,1-.32-.12L115,138.14a.5.5,0,0,1,0-.8l5.07-3.3a.5.5,0,0,1,.27-.08l10.54-.1a.46.46,0,0,1,.41.21.5.5,0,0,1,.07.46L127,147.3a.5.5,0,0,1-.34.32Zm-10.37-9.83,10.13,8.48,3.94-11.43-9.68.1Z"/><polygon class="cls-1" points="373.56 261.34 417.41 246.8 384.09 181.03 261.37 211.02 303.82 217.13 316.41 217.53 370.13 251.05 373.56 261.34"/><path d="M373.56,261.84a.5.5,0,0,1-.47-.34l-3.38-10.13L316.26,218l-12.46-.39-42.51-6.12a.5.5,0,0,1,0-1l122.71-30a.5.5,0,0,1,.56.26l33.32,65.76a.5.5,0,0,1-.29.7l-43.85,14.55ZM264,210.89l39.9,5.74,12.53.39a.5.5,0,0,1,.25.08l53.71,33.52a.5.5,0,0,1,.21.27l3.28,9.82L416.7,246.5l-32.88-64.89Z"/><polygon class="cls-1" points="526.19 176.88 417.41 246.8 384.09 181.03 526.19 176.88"/><path d="M417.41,247.3l-.13,0A.5.5,0,0,1,417,247l-33.32-65.76a.5.5,0,0,1,.43-.73l142.1-4.16a.5.5,0,0,1,.29.92L417.68,247.22A.51.51,0,0,1,417.41,247.3Zm-32.52-65.79,32.72,64.57,106.8-68.65Z"/><polygon class="cls-1" points="437.4 261.88 417.41 246.8 526.19 176.88 437.4 261.88"/><path d="M437.41,262.38a.5.5,0,0,1-.3-.1l-20-15.08a.5.5,0,0,1,0-.82l108.78-69.92a.5.5,0,0,1,.62.78l-88.78,85A.5.5,0,0,1,437.41,262.38Zm-19.12-15.55,19.08,14.4L522.1,180.1Z"/><polygon class="cls-1" points="489.33 265.34 526.19 176.88 437.4 261.88 489.33 265.34"/><path d="M489.33,265.84h0l-51.93-3.46a.5.5,0,0,1-.31-.86l88.78-85a.5.5,0,0,1,.81.55l-36.85,88.46A.5.5,0,0,1,489.33,265.84Zm-50.76-4.38L489,264.81l35.8-85.92Z"/><polygon class="cls-1" points="384.09 181.03 388.79 126.8 435.24 126.12 444.64 143.37 526.19 176.88 384.09 181.03"/><path d="M384.09,181.53a.5.5,0,0,1-.5-.54l4.7-54.24a.5.5,0,0,1,.49-.46l46.45-.67a.49.49,0,0,1,.45.26L445,143l81.38,33.44a.5.5,0,0,1-.18,1l-142.1,4.16Zm5.16-54.24-4.61,53.23,139.19-4.07-79.37-32.61a.5.5,0,0,1-.25-.22l-9.26-17Z"/><polygon class="cls-1" points="261.37 211.02 295.24 158.83 388.79 126.8 384.09 181.03 261.37 211.02"/><path d="M261.37,211.52a.5.5,0,0,1-.42-.77l33.86-52.2a.5.5,0,0,1,.26-.2l93.55-32a.49.49,0,0,1,.47.08.5.5,0,0,1,.19.44l-4.7,54.24a.5.5,0,0,1-.38.44l-122.71,30Zm34.19-52.28-33.08,51,121.14-29.6,4.6-53.11Z"/><polygon class="cls-1" points="174.62 362.67 206.13 375.81 246.76 343.28 230.54 350.94 174.62 362.67"/><path d="M206.13,376.31a.51.51,0,0,1-.19,0l-31.5-13.15a.5.5,0,0,1,.09-1l55.86-11.72,16.17-7.63a.5.5,0,0,1,.53.84L206.44,376.2A.5.5,0,0,1,206.13,376.31ZM176.3,362.83,206,375.24l37.08-29.69-12.38,5.84-.11,0Z"/><polygon class="cls-1" points="242.37 417.62 314.22 365.74 281.72 316.72 269.94 332.33 246.76 343.28 206.13 375.81 229.71 385.65 242.37 417.62"/><path d="M242.37,418.12l-.14,0a.5.5,0,0,1-.32-.29L229.32,386l-23.39-9.76a.5.5,0,0,1-.12-.85l40.63-32.54.1-.06,23.07-10.89,11.71-15.51a.59.59,0,0,1,.41-.2.5.5,0,0,1,.4.22l32.5,49a.5.5,0,0,1-.12.68L242.67,418A.5.5,0,0,1,242.37,418.12ZM207.1,375.68l22.81,9.52a.5.5,0,0,1,.27.28l12.43,31.36,70.94-51.22-31.85-48-11.35,15a.49.49,0,0,1-.19.15L247,343.7Z"/><polygon class="cls-1" points="385.08 367.38 314.22 365.74 242.37 417.62 245.11 424.53 385.08 367.38"/><path d="M245.11,425a.51.51,0,0,1-.2,0,.5.5,0,0,1-.27-.28l-2.74-6.92a.5.5,0,0,1,.17-.59l71.85-51.87a.44.44,0,0,1,.3-.09l70.86,1.64a.5.5,0,0,1,.18,1L245.3,425A.51.51,0,0,1,245.11,425ZM243,417.79l2.41,6.08,137.27-56-68.29-1.58Z"/><polygon class="cls-1" points="234.52 252.32 281.72 316.72 269.94 332.33 234.52 252.32"/><path d="M269.94,332.83h-.06a.5.5,0,0,1-.4-.29l-35.42-80a.5.5,0,0,1,.86-.5l47.2,64.4a.5.5,0,0,1,0,.6l-11.78,15.61A.5.5,0,0,1,269.94,332.83Zm-33.1-76.49,33.21,75,11-14.64Z"/><polygon class="cls-1" points="224.55 229.82 261.37 211.02 268.8 234.84 234.52 252.32 224.55 229.82"/><path d="M234.52,252.82l-.17,0a.5.5,0,0,1-.29-.27l-10-22.5a.5.5,0,0,1,.23-.65l36.82-18.8a.5.5,0,0,1,.71.3l7.43,23.81a.5.5,0,0,1-.25.59l-34.28,17.49A.5.5,0,0,1,234.52,252.82Zm-9.31-22.77,9.56,21.59,33.44-17.06-7.12-22.84Z"/><polygon class="cls-1" points="316.41 217.53 268.8 234.84 261.37 211.02 303.82 217.13 316.41 217.53"/><path d="M268.8,235.33a.5.5,0,0,1-.48-.35l-7.43-23.81a.5.5,0,0,1,.55-.64l42.45,6.11,12.53.39a.5.5,0,0,1,.16,1L269,235.3A.49.49,0,0,1,268.8,235.33Zm-6.71-23.71,7,22.56,44.68-16.24-10-.31Z"/><polygon class="cls-1" points="370.13 251.05 306.89 263.57 268.8 234.84 316.41 217.53 370.13 251.05"/><path d="M306.89,264.07a.5.5,0,0,1-.3-.1L268.5,235.23a.5.5,0,0,1,.13-.87l47.62-17.31a.5.5,0,0,1,.44,0l53.71,33.52a.5.5,0,0,1-.17.91L307,264.06ZM269.83,235,307,263l61.78-12.24-52.43-32.72Z"/><polygon class="cls-1" points="234.52 252.32 306.89 263.57 268.8 234.84 234.52 252.32"/><path d="M306.89,264.07h-.08l-72.37-11.25a.5.5,0,0,1-.15-.94l34.28-17.49a.5.5,0,0,1,.53,0l38.09,28.74a.5.5,0,0,1-.3.9Zm-70.77-12L305,262.77l-36.25-27.35Z"/><polygon class="cls-1" points="281.72 316.72 306.89 263.57 234.52 252.32 281.72 316.72"/><path d="M281.72,317.22a.5.5,0,0,1-.4-.2l-47.2-64.4a.5.5,0,0,1,.48-.79L307,263.08a.5.5,0,0,1,.38.71l-25.17,53.15a.5.5,0,0,1-.4.28ZM235.63,253l46,62.74L306.15,264Z"/><polygon class="cls-1" points="314.22 365.74 306.89 263.57 281.72 316.72 314.22 365.74"/><path d="M314.22,366.24a.5.5,0,0,1-.42-.22l-32.5-49a.5.5,0,0,1,0-.49l25.17-53.15a.49.49,0,0,1,.54-.28.5.5,0,0,1,.41.46l7.33,102.17a.5.5,0,0,1-.34.51Zm-31.93-49.56,31.29,47.2-7.06-98.37Z"/><polygon class="cls-1" points="385.08 367.38 373.56 261.34 370.13 251.05 306.89 263.57 314.22 365.74 385.08 367.38"/><path d="M385.08,367.88h0l-70.86-1.64a.5.5,0,0,1-.49-.46l-7.33-102.17a.5.5,0,0,1,.4-.53L370,250.56a.5.5,0,0,1,.57.33l3.44,10.3a.5.5,0,0,1,0,.1l11.51,106a.5.5,0,0,1-.5.55Zm-70.39-2.63,69.83,1.62L373.07,261.45l-3.28-9.83L307.42,264Z"/><polygon class="cls-1" points="295.24 158.83 326.59 102.29 349.81 99.5 341.05 143.14 295.24 158.83"/><path d="M295.24,159.33a.5.5,0,0,1-.44-.74L326.16,102a.5.5,0,0,1,.38-.25L349.76,99a.49.49,0,0,1,.43.16.5.5,0,0,1,.12.44l-8.76,43.64a.5.5,0,0,1-.33.37L295.4,159.3Zm31.67-56.57-30.6,55.18,44.32-15.17,8.57-42.68Z"/><polygon class="cls-1" points="362.98 135.63 349.81 99.5 341.05 143.14 362.98 135.63"/><path d="M341.05,143.64a.5.5,0,0,1-.49-.6l8.76-43.64a.5.5,0,0,1,.45-.4.49.49,0,0,1,.51.33l13.17,36.13a.5.5,0,0,1-.31.64l-21.93,7.51Zm8.9-42.3-8.24,41,20.62-7.06Z"/><polygon class="cls-1" points="437.4 261.88 376.01 283.84 373.56 261.34 417.41 246.8 437.4 261.88"/><path d="M376,284.34a.5.5,0,0,1-.5-.45l-2.44-22.5a.5.5,0,0,1,.34-.53l43.85-14.55a.5.5,0,0,1,.46.08l20,15.09a.5.5,0,0,1-.13.87l-61.4,22Zm-1.9-22.65,2.33,21.47,59.93-21.44-19-14.37Z"/><polygon class="cls-1" points="489.33 265.34 376.01 283.84 437.4 261.88 489.33 265.34"/><path d="M376,284.34a.5.5,0,0,1-.17-1l61.4-22a.51.51,0,0,1,.2,0l51.93,3.46a.5.5,0,0,1,0,1l-113.33,18.5Zm61.47-22-56.13,20.08,103.6-16.92Z"/><polygon class="cls-1" points="382.86 346.98 376.01 283.84 408.62 278.52 427.18 302.23 382.86 346.98"/><path d="M382.86,347.48a.48.48,0,0,1-.17,0,.5.5,0,0,1-.33-.42l-6.85-63.13a.5.5,0,0,1,.42-.55L408.53,278a.5.5,0,0,1,.47.18l18.57,23.71a.5.5,0,0,1,0,.66l-44.32,44.74A.5.5,0,0,1,382.86,347.48Zm-6.31-63.22,6.69,61.62,43.27-43.68L408.4,279.06Z"/><path class="cls-1" d="M400.11,306.49s15.64.68,18.37.29a16.69,16.69,0,0,1,4.36-.16l4.35-4.39L423.9,298a9,9,0,0,1-4.58,3.78C416.46,302.64,400.11,306.49,400.11,306.49Z"/><path d="M415,307.4c-5.4,0-14.39-.39-14.88-.41a.5.5,0,0,1-.09-1c.16,0,16.38-3.86,19.19-4.67a8.49,8.49,0,0,0,4.28-3.55.5.5,0,0,1,.4-.25.51.51,0,0,1,.43.19l3.28,4.19a.5.5,0,0,1,0,.66L423.19,307a.51.51,0,0,1-.43.14,16.32,16.32,0,0,0-4.21.16A32.21,32.21,0,0,1,415,307.4Zm-11.18-1.27c4.79.17,12.78.41,14.62.15a18.66,18.66,0,0,1,4.24-.18l3.87-3.91-2.58-3.3a9,9,0,0,1-4.47,3.41C417.43,302.88,408.77,305,403.78,306.14Z"/><path class="cls-1" d="M278.61,109c8.55-2.66,15.62-1.16,8.72-3.72l22.41-1-2,31.89-12.55,22.64L261.37,211l-36.81,18.79-13.73-31,25.51-48.66c3.62-4,8.84-10.47,11.38-13.35,5.08-5.79,6.55-9.22,11.54-17.56S270.06,111.63,278.61,109Z"/><path d="M224.56,230.31l-.17,0a.5.5,0,0,1-.29-.27l-13.73-31a.5.5,0,0,1,0-.43l25.51-48.67.07-.1c2.13-2.37,4.81-5.58,7.18-8.4,1.62-1.93,3.15-3.76,4.19-4.95,3.87-4.41,5.61-7.41,8.5-12.38.87-1.5,1.84-3.17,3-5.1,3.95-6.6,8.49-7.68,14.23-9.06,1.71-.41,3.48-.83,5.41-1.43a49,49,0,0,1,9-1.76c.6-.07,1.21-.15,1.66-.22-.38-.18-1-.43-2-.79a.5.5,0,0,1,.15-1l22.41-1a.53.53,0,0,1,.38.15.5.5,0,0,1,.14.38l-2,31.89a.5.5,0,0,1-.06.21l-12.55,22.64-33.88,52.23a.5.5,0,0,1-.19.17l-36.81,18.79A.5.5,0,0,1,224.56,230.31Zm-13.18-31.47,13.42,30.29L261,210.64l33.79-52.08L307.29,136l1.92-31.22-19.56.83c.81.39,1,.67,1,1.05-.08.66-.82.75-3,1a48.13,48.13,0,0,0-8.82,1.72l-.15-.48.15.48c-2,.61-3.75,1-5.47,1.45-5.73,1.37-9.87,2.36-13.61,8.6-1.15,1.93-2.12,3.59-3,5.09-2.91,5-4.67,8.06-8.61,12.54-1,1.18-2.56,3-4.17,4.93-2.36,2.82-5,6-7.16,8.38Z"/><path class="cls-1" d="M176,42.29a40.19,40.19,0,0,1,10.13,4.57c5.24,3.28,7.7,4.47,10.56,6.62S209.35,61.63,208.5,59l42.81,40c-1,3.35-1.95,6.68-2.69,9.57-2.19,8.31-2.64,5-2.3,14.7s-4.28,11.31-11.88,25.37c-3.8,7.05-1.76,5.48,1.89,1.47l-25.51,48.66-86.28-18.66,43.19-87.6Z"/><path d="M210.83,199.32h-.11l-86.28-18.66a.5.5,0,0,1-.34-.71L167.25,92.4l8.28-50.19a.5.5,0,0,1,.22-.34.49.49,0,0,1,.4-.06,40.26,40.26,0,0,1,10.27,4.64c2,1.23,3.53,2.16,4.9,3A58.29,58.29,0,0,1,197,53.09c3,2.27,9.59,6.09,11,6.09h0a.5.5,0,0,1,.82-.52l42.82,40a.5.5,0,0,1,.14.5l-.65,2.27c-.75,2.6-1.46,5.06-2,7.29-.67,2.53-1.17,4-1.55,5.06-.84,2.43-1,2.8-.74,9.49s-1.74,9.5-5.31,14.83a123.36,123.36,0,0,0-6.63,10.8,29.72,29.72,0,0,0-1.84,3.83,30.2,30.2,0,0,0,2.92-2.94.5.5,0,0,1,.81.57l-25.51,48.67A.5.5,0,0,1,210.83,199.32Zm-85.55-19.51,85.28,18.44L234.28,153c-1.35,1.25-1.74,1.2-2.08,1s-.65-.95,1.8-5.5a124.39,124.39,0,0,1,6.68-10.88c3.46-5.15,5.36-8,5.14-14.23-.24-6.87-.08-7.33.79-9.85.37-1.05.87-2.5,1.52-5,.58-2.24,1.29-4.7,2-7.31l.57-2-42-39.26-.05,0c-1.8,1.28-12.2-6-12.3-6.1a57.52,57.52,0,0,0-5.6-3.61c-1.38-.82-2.94-1.75-4.92-3a41,41,0,0,0-9.46-4.36l-8.2,49.71a.48.48,0,0,1,0,.14Zm42.46-87.25h0Z"/><polygon class="cls-1" points="112.62 177.56 124.54 180.14 167.72 92.57 177.97 30.44 147.4 95.27 130.96 134.35 126.56 147.13 118.83 162.31 112.62 177.56"/><path d="M124.54,180.64h-.11L112.52,178a.5.5,0,0,1-.36-.68l6.2-15.25,7.75-15.22,4.38-12.72,16.45-39.11,30.58-64.85a.5.5,0,0,1,.95.29L168.22,92.65a.48.48,0,0,1,0,.14L125,180.36A.5.5,0,0,1,124.54,180.64Zm-11.23-3.44,11,2.37,43-87.15,9.65-58.52-29,61.59-16.43,39.06L127,147.3l-7.76,15.24Z"/><path class="cls-1" d="M185.45,28,267.8.5l-.93,11.45c-2.85-1.56-.69,8.52-5.11,14.13s-1.85,25.75-2.67,38.41-2.29,7-3.78,19.38c-.34,2.65-2.17,8.87-4,15.17L208.5,59a0,0,0,0,1,0,0c-.86-2.66-6.17-12.38-13.74-19.57S185.45,28,185.45,28Z"/><path d="M251.32,99.55a.5.5,0,0,1-.34-.13l-42.81-40a.59.59,0,0,1-.17-.32v0c-.94-2.76-6.2-12.27-13.58-19.27-7.62-7.17-9.36-11.43-9.42-11.61a.5.5,0,0,1,.31-.66L267.64,0a.5.5,0,0,1,.66.51L267.37,12a.5.5,0,0,1-.74.4c-.16-.09-.29-.12-.35-.09-.42.22-.64,2-.83,3.62-.37,3.13-.89,7.41-3.3,10.47-2.86,3.63-2.66,14-2.48,24.11.09,4.86.18,9.89-.08,14-.43,6.78-1.05,8.39-1.77,10.25-.61,1.58-1.31,3.38-2,9.16-.34,2.63-2.06,8.55-3.9,14.82l-.13.43a.5.5,0,0,1-.35.34ZM208.95,58.75l42.11,39.37c1.71-5.85,3.44-11.82,3.76-14.32.71-5.9,1.43-7.76,2.06-9.4s1.29-3.32,1.71-10c.26-4.1.17-9.11.08-13.95-.19-10.24-.38-20.83,2.69-24.75,2.24-2.84,2.73-7,3.09-10,.28-2.37.47-3.93,1.36-4.39a1.13,1.13,0,0,1,.6-.12l.81-10.07-81.1,27c.67,1.29,3,5.13,9,10.77C202.63,46.18,208,56,208.95,58.75Z"/><path class="cls-1" d="M178,30.44,185.45,28s1.68,4.25,9.3,11.43S207.63,56.3,208.49,59a0,0,0,0,0,0,0c.85,2.62-8.93-3.37-11.79-5.53s-5.32-3.34-10.56-6.62A40.19,40.19,0,0,0,176,42.29Z"/><path d="M208.12,60.14c-2.82,0-11.61-6.18-11.71-6.25a57.52,57.52,0,0,0-5.6-3.61c-1.38-.82-2.94-1.75-4.92-3a40.1,40.1,0,0,0-10-4.52.5.5,0,0,1-.37-.56l1.95-11.85a.5.5,0,0,1,.34-.39l7.47-2.47a.5.5,0,0,1,.62.29S187.67,32,195.09,39c7.59,7.2,13,17.07,13.88,19.78a.5.5,0,0,1,0,.08.9.9,0,0,1-.27,1.09A1,1,0,0,1,208.12,60.14ZM176.59,41.93a41.25,41.25,0,0,1,9.83,4.51c2,1.23,3.53,2.16,4.9,3A58.23,58.23,0,0,1,197,53.09c3,2.27,9.59,6.09,11,6.09h0a.51.51,0,0,1,0-.11v0c-.94-2.76-6.2-12.27-13.58-19.27-6.33-6-8.6-9.92-9.23-11.18l-6.76,2.24Z"/><path class="cls-1" d="M330.84,101.77l-4.25.53-18.8,33.89,2-31.89-22.41,1c-6.95-2.55-16.7,2.11-19.42-1.41s-.44-9.58-2.42-20.32,3.72-16.82,4.2-25.41-.72-17.35-.14-29.52.17-15.08-2.68-16.65L267.8.5Z"/><path d="M307.79,136.69l-.14,0a.5.5,0,0,1-.36-.51l1.93-31.33-21.86.93a.57.57,0,0,1-.19,0c-3.24-1.19-7.2-.75-10.69-.36-4,.44-7.38.83-9-1.22s-1.6-4.8-1.6-8.61A62.14,62.14,0,0,0,265,83.61c-1.21-6.63.42-11.49,2-16.19a34.87,34.87,0,0,0,2.2-9.34c.23-4,.08-8.11-.07-12.47-.17-5-.37-10.56-.07-17,.59-11.89.16-14.77-2.42-16.18a.5.5,0,0,1-.26-.48L267.3.46a.5.5,0,0,1,.92-.22l63,101.27a.5.5,0,0,1-.36.76l-4,.5-18.68,33.67A.5.5,0,0,1,307.79,136.69Zm2-32.89a.5.5,0,0,1,.5.53L308.42,134l17.73-32a.5.5,0,0,1,.38-.25l3.48-.43L268.17,2.05l-.78,9.62c3,1.82,3.23,5.43,2.66,16.95-.31,6.44-.11,12,.07,17,.15,4.39.3,8.53.07,12.56a36.14,36.14,0,0,1-2.25,9.6c-1.53,4.58-3.12,9.32-2,15.69a63,63,0,0,1,.93,12.1c0,3.61,0,6.21,1.4,8,1.24,1.6,4.4,1.25,8.05.84s7.6-.85,11,.38l22.31-.95Z"/><path class="cls-1" d="M266.87,11.95c2.85,1.56,3.29,4.5,2.68,16.65s.62,21,.14,29.52-6.16,14.64-4.2,25.41-.33,16.77,2.42,20.32,12.47-1.14,19.42,1.41-.17,1.05-8.72,3.72-14.39,2-19.36,10.27S252.8,131,247.71,136.8c-2.53,2.88-7.75,9.32-11.38,13.35s-5.69,5.58-1.89-1.47c7.6-14.06,12.22-15.66,11.88-25.37s.11-6.39,2.3-14.7c.74-2.89,1.73-6.22,2.69-9.57,1.84-6.3,3.67-12.53,4-15.17,1.49-12.37,3-6.67,3.78-19.38s-1.73-32.82,2.67-38.41S264,10.38,266.87,11.95Z"/><path d="M232.59,154.09a.64.64,0,0,1-.38-.14c-.49-.35-.65-.95,1.8-5.5a124.39,124.39,0,0,1,6.68-10.88c3.46-5.15,5.36-8,5.14-14.23-.24-6.87-.08-7.33.79-9.85.37-1.05.87-2.5,1.52-5,.58-2.24,1.29-4.7,2-7.31l.78-2.7c1.74-6,3.54-12.12,3.86-14.66.71-5.9,1.43-7.76,2.06-9.4s1.29-3.32,1.71-10c.26-4.1.17-9.11.08-13.95-.19-10.24-.38-20.83,2.69-24.75,2.24-2.84,2.73-7,3.09-10,.28-2.37.47-3.93,1.36-4.39a1.32,1.32,0,0,1,1.28.1h0c3.23,1.77,3.53,5.24,2.94,17.11-.31,6.44-.11,12,.07,17,.15,4.39.3,8.53.07,12.56a36.14,36.14,0,0,1-2.25,9.6c-1.53,4.58-3.12,9.32-2,15.69a63,63,0,0,1,.93,12.1c0,3.61,0,6.21,1.4,8,1.24,1.6,4.4,1.25,8.05.84s7.68-.86,11.14.41c2.63,1,3.18,1.32,3.11,1.92s-.82.75-3,1a48.13,48.13,0,0,0-8.82,1.72c-2,.61-3.75,1-5.47,1.45-5.73,1.37-9.87,2.36-13.61,8.6-1.15,1.93-2.12,3.59-3,5.09-2.91,5-4.67,8.06-8.61,12.54-1,1.18-2.56,3-4.17,4.93-2.37,2.84-5.06,6-7.2,8.43C234.06,153.4,233.11,154.09,232.59,154.09Zm33.75-141.8h-.05c-.42.22-.64,2-.83,3.62-.37,3.13-.89,7.41-3.3,10.47-2.86,3.63-2.66,14-2.48,24.11.09,4.86.18,9.89-.08,14-.43,6.78-1.05,8.39-1.77,10.25-.61,1.58-1.31,3.38-2,9.16-.34,2.63-2.06,8.55-3.9,14.82l-.78,2.7c-.75,2.6-1.46,5.06-2,7.29-.67,2.53-1.17,4-1.55,5.06-.84,2.43-1,2.8-.74,9.49s-1.74,9.5-5.31,14.83a123.36,123.36,0,0,0-6.63,10.8,29.79,29.79,0,0,0-1.84,3.83,30.2,30.2,0,0,0,2.92-2.94c2.13-2.37,4.81-5.57,7.18-8.4,1.62-1.93,3.15-3.76,4.19-4.95,3.87-4.41,5.61-7.41,8.5-12.38.87-1.5,1.84-3.17,3-5.1,3.95-6.6,8.49-7.68,14.23-9.06,1.71-.41,3.48-.83,5.41-1.43a49,49,0,0,1,9-1.76c.6-.07,1.21-.15,1.66-.22-.38-.18-1-.43-2-.79-3.24-1.19-7.19-.75-10.68-.36-4,.44-7.38.83-9-1.22s-1.6-4.8-1.6-8.61A62.14,62.14,0,0,0,265,83.61c-1.21-6.63.42-11.49,2-16.19a34.87,34.87,0,0,0,2.2-9.34c.23-4,.08-8.11-.07-12.47-.17-5-.37-10.56-.07-17,.59-11.89.16-14.77-2.42-16.18h0A.69.69,0,0,0,266.34,12.28Z"/><polygon class="cls-1" points="910.49 242.1 895.02 212.23 731.51 234 812.95 272.51 910.49 242.1"/><path d="M812.95,273a.51.51,0,0,1-.21,0l-81.44-38.5a.5.5,0,0,1,.15-.95L895,211.73a.5.5,0,0,1,.51.27l15.47,29.87a.5.5,0,0,1-.29.71L813.09,273Zm-79.69-38.73L813,272l96.79-30.17-15-29Z"/><polygon class="cls-1" points="943.48 310.28 910.49 242.1 812.95 272.51 850.95 381.82 943.48 310.28"/><path d="M850.94,382.32l-.14,0a.5.5,0,0,1-.33-.32l-38-109.31a.5.5,0,0,1,.32-.64l97.55-30.41a.5.5,0,0,1,.6.26l33,68.18a.5.5,0,0,1-.14.61l-92.53,71.54A.5.5,0,0,1,850.94,382.32ZM813.59,272.83,851.19,381l91.66-70.87-32.62-67.43Z"/><polygon class="cls-1" points="747.76 356.08 850.95 381.82 812.95 272.51 747.76 356.08"/><path d="M850.94,382.32h-.12L747.64,356.56a.5.5,0,0,1-.27-.79l65.18-83.57A.49.49,0,0,1,813,272a.5.5,0,0,1,.39.33l38,109.31a.5.5,0,0,1-.47.66ZM748.63,355.78l101.54,25.33L812.77,273.54Z"/><path class="cls-1" d="M731.51,234s-53,116.21-52,113.46,68.27,8.62,68.27,8.62l65.18-83.57Z"/><path d="M747.76,356.58h-.08c-25-4.23-65.56-10.36-67.79-8.83a.24.24,0,0,0,.07-.11h0c-.3.49-.42.44-.64.35a.55.55,0,0,1-.27-.68.7.7,0,0,1,.14-.26c2.75-5.56,51.38-112.14,51.88-113.23a.5.5,0,0,1,.28-.26.49.49,0,0,1,.39,0l81.44,38.5a.5.5,0,0,1,.18.76l-65.19,83.57A.5.5,0,0,1,747.76,356.58Zm-65.7-10c3.75,0,12.28.78,32,3.69,15.53,2.29,31.15,4.9,33.47,5.29l64.62-82.84-80.42-38C730,238.44,718,264.72,706,291c-6.49,14.19-13,28.38-17.87,39-2.44,5.32-4.48,9.75-5.92,12.85-.83,1.79-1.38,3-1.76,3.75A15.32,15.32,0,0,1,682.06,346.55Z"/><polygon class="cls-1" points="850.95 381.82 801.86 455.12 747.76 356.08 850.95 381.82"/><path d="M801.86,455.62h0a.5.5,0,0,1-.42-.26l-54.1-99a.5.5,0,0,1,.56-.72l103.18,25.74a.5.5,0,0,1,.29.76l-49.08,73.3A.5.5,0,0,1,801.86,455.62Zm-53.12-98.78,53.16,97.32,48.23-72Z"/><polygon class="cls-1" points="679.5 347.46 698.55 390.5 747.76 356.08 679.5 347.46"/><path d="M698.55,391l-.13,0a.5.5,0,0,1-.32-.28l-19.05-43a.5.5,0,0,1,.06-.5.49.49,0,0,1,.46-.2l68.27,8.62a.5.5,0,0,1,.22.91l-49.21,34.42A.51.51,0,0,1,698.55,391Zm-18.24-42.93,18.45,41.67,47.65-33.33Z"/><polygon class="cls-1" points="801.86 455.12 749.6 445.82 698.55 390.5 747.76 356.08 801.86 455.12"/><path d="M801.86,455.62h-.09l-52.27-9.3a.5.5,0,0,1-.28-.15l-51-55.32a.5.5,0,0,1,.08-.75l49.21-34.42a.49.49,0,0,1,.4-.08.5.5,0,0,1,.32.25l54.1,99a.5.5,0,0,1-.44.74Zm-52-10.26,51.07,9.08-53.33-97.64L699.3,390.58Z"/><polygon class="cls-1" points="876.05 214.76 828.74 192.61 815.8 198.97 755.23 173.95 802.8 158.32 830.88 158.65 893.42 189.8 895.02 212.23 876.05 214.76"/><path d="M876.05,215.26a.5.5,0,0,1-.21,0l-47.09-22L816,199.42a.5.5,0,0,1-.41,0l-60.57-25a.5.5,0,0,1,0-.94l47.57-15.62.16,0,28.09.33a.5.5,0,0,1,.22.05l62.53,31.15a.5.5,0,0,1,.28.41l1.61,22.43a.5.5,0,0,1-.43.53l-19,2.53Zm-47.31-23.15a.5.5,0,0,1,.21,0l47.18,22.09,18.36-2.45-1.55-21.67-62.17-31-27.89-.32L756.67,174l59.11,24.42,12.74-6.27A.5.5,0,0,1,828.74,192.11Z"/><path class="cls-1" d="M906.24,144.55c-2.25,3.78-12.82,45.25-12.82,45.25l-62.53-31.15L817,126.83,805.49,71.46Z"/><path d="M893.42,190.3a.5.5,0,0,1-.22-.05L830.66,159.1a.5.5,0,0,1-.23-.25L816.54,127a.51.51,0,0,1,0-.1L805,71.56a.5.5,0,0,1,.78-.51l100.75,73.09a.5.5,0,0,1,.14.66c-2.19,3.68-12.66,44.7-12.77,45.12a.5.5,0,0,1-.28.33A.48.48,0,0,1,893.42,190.3Zm-62.15-32,61.81,30.79c1.32-5.15,10-39.06,12.51-44.37L806.24,72.63l11.24,54Z"/><polygon class="cls-1" points="802.8 158.32 816.99 126.83 830.88 158.65 802.8 158.32"/><path d="M830.89,159.15h0l-28.09-.33a.5.5,0,0,1-.45-.71l14.19-31.5a.5.5,0,0,1,.46-.3h0a.5.5,0,0,1,.46.3l13.89,31.82a.5.5,0,0,1-.46.7Zm-27.32-1.32,26.55.31L817,128.06Z"/><polygon class="cls-1" points="791.75 138.32 816.99 126.83 802.8 158.32 791.75 138.32"/><path d="M802.8,158.82a.5.5,0,0,1-.44-.26l-11.05-20a.5.5,0,0,1,.23-.7l25.25-11.49a.5.5,0,0,1,.66.66l-14.19,31.5a.5.5,0,0,1-.44.29Zm-10.35-20.28,10.31,18.66L816,127.83Z"/><polygon class="cls-1" points="755.23 173.95 732.15 142.19 767.02 126.15 791.75 138.32 802.8 158.32 755.23 173.95"/><path d="M755.23,174.45a.5.5,0,0,1-.4-.21l-23.08-31.76a.5.5,0,0,1,.2-.75l34.87-16a.5.5,0,0,1,.43,0L792,137.87a.5.5,0,0,1,.22.21l11.05,20a.5.5,0,0,1-.28.72l-47.57,15.62Zm-22.31-32.06,22.5,31L802.07,158l-10.69-19.34L767,126.7Z"/><polygon class="cls-1" points="713.1 95.77 767.02 126.15 732.15 142.19 713.1 95.77"/><path d="M732.15,142.69a.5.5,0,0,1-.46-.31L712.64,96a.5.5,0,0,1,.71-.62l53.92,30.37a.5.5,0,0,1,0,.89l-34.87,16A.5.5,0,0,1,732.15,142.69Zm-18-45.77,18.31,44.6,33.51-15.41Z"/><polygon class="cls-1" points="805.49 71.46 816.99 126.83 791.75 138.32 767.02 126.15 713.1 95.77 805.49 71.46"/><path d="M791.75,138.82a.5.5,0,0,1-.22-.05L766.8,126.6,712.86,96.21a.5.5,0,0,1,.12-.92L805.36,71a.5.5,0,0,1,.62.38l11.51,55.36a.5.5,0,0,1-.28.56L792,138.77A.5.5,0,0,1,791.75,138.82ZM714.42,95.94l52.85,29.77,24.48,12.05,24.67-11.23L805.1,72.08Z"/><polygon class="cls-1" points="895.02 212.23 932.16 225.28 943.48 310.28 910.49 242.1 895.02 212.23"/><path d="M943.48,310.78a.5.5,0,0,1-.45-.28l-33-68.18-15.46-29.86a.5.5,0,0,1,.61-.7l37.14,13.05a.5.5,0,0,1,.33.41l11.32,85a.5.5,0,0,1-.35.54ZM896,213.12l14.89,28.75,31.63,65.39-10.87-81.6Z"/><polygon class="cls-1" points="966.77 122.67 932.16 225.28 895.02 212.23 966.77 122.67"/><path d="M932.16,225.78l-.17,0L894.86,212.7a.5.5,0,0,1-.22-.78l71.74-89.56a.5.5,0,0,1,.86.47L932.63,225.44a.5.5,0,0,1-.25.29A.49.49,0,0,1,932.16,225.78ZM895.85,212l36,12.65,33.54-99.46Z"/><polygon class="cls-1" points="969.19 344.59 943.48 310.28 932.16 225.28 987.72 280.01 969.19 344.59"/><path d="M969.19,345.09a.5.5,0,0,1-.4-.2l-25.72-34.31a.5.5,0,0,1-.1-.23l-11.32-85a.5.5,0,0,1,.85-.42l55.56,54.72a.5.5,0,0,1,.13.49l-18.52,64.59a.5.5,0,0,1-.39.35Zm-25.24-35,25,33.4,18.16-63.33-54.31-53.49Z"/><polygon class="cls-1" points="966.77 122.67 987.72 280.01 932.16 225.28 966.77 122.67"/><path d="M987.71,280.51a.5.5,0,0,1-.35-.14l-55.56-54.72a.5.5,0,0,1-.12-.52l34.61-102.62a.51.51,0,0,1,.52-.34.5.5,0,0,1,.45.43l20.95,157.34a.5.5,0,0,1-.5.57Zm-55-55.36L987,278.63,966.55,124.86Z"/><path class="cls-1" d="M1034,313.32c-.23-1.71-46.27-33.32-46.27-33.32l-18.52,64.59,45.62-6.07Z"/><path d="M969.19,345.09a.5.5,0,0,1-.48-.64l18.52-64.59a.5.5,0,0,1,.76-.27c13.9,9.54,46.25,31.92,46.48,33.66a.5.5,0,0,1-.1.37l-19.17,25.19a.5.5,0,0,1-.33.19l-45.62,6.07ZM988,280.81,969.88,344l44.66-5.95,18.83-24.75C1031,310.73,1005.48,292.81,988,280.81Z"/><polygon class="cls-1" points="1012.21 104.9 1033.98 313.32 987.72 280.01 966.77 122.67 1012.21 104.9"/><path d="M1034,313.82a.49.49,0,0,1-.29-.09l-46.27-33.32a.5.5,0,0,1-.2-.34L966.27,122.73a.5.5,0,0,1,.31-.53L1012,104.43a.5.5,0,0,1,.44,0,.5.5,0,0,1,.24.38l21.77,208.43a.5.5,0,0,1-.5.55Zm-45.8-34.1,45.19,32.54L1011.78,105.6,967.31,123Z"/><polygon class="cls-1" points="918.93 65.65 1000.45 89.04 1012.21 104.9 966.77 122.67 918.93 65.65"/><path d="M966.77,123.17a.5.5,0,0,1-.38-.18L918.55,66a.5.5,0,0,1,.52-.8l81.51,23.39a.5.5,0,0,1,.26.18l11.77,15.86a.5.5,0,0,1-.22.76l-45.44,17.77A.49.49,0,0,1,966.77,123.17Zm-46.4-56.59,46.55,55.49,44.5-17.4-11.27-15.2Z"/><polygon class="cls-1" points="906.24 144.55 918.93 65.65 966.77 122.67 895.02 212.23 893.42 189.8 906.24 144.55"/><path d="M895,212.73l-.15,0a.5.5,0,0,1-.35-.44l-1.61-22.43a.49.49,0,0,1,0-.17l12.81-45.22,12.69-78.87a.5.5,0,0,1,.88-.24l47.84,57a.5.5,0,0,1,0,.63l-71.74,89.56A.5.5,0,0,1,895,212.73Zm-1.1-22.88,1.51,21.07,70.69-88.25L919.25,66.81l-12.52,77.82v.06Zm12.32-45.3h0Z"/><polygon class="cls-1" points="891.58 34.45 918.93 65.65 955.05 34.71 891.58 34.45"/><path d="M918.93,66.15a.5.5,0,0,1-.38-.17L891.21,34.79a.5.5,0,0,1,.38-.83h0l63.47.26a.5.5,0,0,1,.32.88L919.26,66A.5.5,0,0,1,918.93,66.15ZM892.69,35l26.29,30,34.73-29.74Z"/><polygon class="cls-1" points="974.21 81.51 955.05 34.71 918.93 65.65 974.21 81.51"/><path d="M974.21,82l-.14,0L918.79,66.13a.5.5,0,0,1-.19-.86l36.12-30.94a.5.5,0,0,1,.79.19l19.15,46.8a.5.5,0,0,1-.46.69ZM920,65.42l53.39,15.32-18.5-45.2Z"/><polygon class="cls-1" points="914.87 90.89 898.69 87.86 891.58 34.45 918.93 65.65 914.87 90.89"/><path d="M914.87,91.39h-.09l-16.18-3a.5.5,0,0,1-.4-.42l-7.11-53.41a.5.5,0,0,1,.87-.4l27.35,31.19a.5.5,0,0,1,.12.41L915.36,91a.5.5,0,0,1-.49.42Zm-15.73-4,15.32,2.87L918.4,65.8,892.3,36Z"/><polygon class="cls-1" points="890.77 133.33 881.76 102.29 910.44 118.45 906.24 144.55 890.77 133.33"/><path d="M906.24,145.05a.5.5,0,0,1-.29-.1l-15.47-11.22a.49.49,0,0,1-.19-.26l-9-31a.5.5,0,0,1,.73-.58L910.68,118a.5.5,0,0,1,.25.51l-4.2,26.1a.5.5,0,0,1-.49.42Zm-15-12,14.67,10.64,4-25-27.3-15.39Z"/><polygon class="cls-1" points="914.87 90.89 910.44 118.45 881.76 102.29 898.69 87.86 914.87 90.89"/><path d="M910.44,118.95a.5.5,0,0,1-.25-.06l-28.67-16.16a.5.5,0,0,1-.08-.82l16.93-14.43a.51.51,0,0,1,.42-.11l16.18,3a.5.5,0,0,1,.4.57l-4.43,27.55a.5.5,0,0,1-.49.42Zm-27.8-16.74,27.42,15.45L914.3,91.3l-15.46-2.9Z"/><polygon class="cls-1" points="1011.57 425.53 996.86 340.91 1014.81 338.52 1011.57 425.53"/><path d="M1011.57,426a.5.5,0,0,1-.49-.41L996.37,341a.5.5,0,0,1,.43-.58l18-2.39a.5.5,0,0,1,.57.51l-3.24,87a.5.5,0,0,1-.47.48Zm-14.13-84.69,13.81,79.42,3-81.66Z"/><polygon class="cls-1" points="969.19 344.59 955.04 397.13 983.21 386.01 996.86 340.91 969.19 344.59"/><path d="M955,397.63a.5.5,0,0,1-.48-.63l14.15-52.54a.5.5,0,0,1,.42-.37l27.67-3.68a.5.5,0,0,1,.54.64l-13.65,45.11a.5.5,0,0,1-.29.32L955.22,397.6A.5.5,0,0,1,955,397.63ZM969.59,345,955.78,396.3l27-10.66,13.35-44.13Z"/><polygon class="cls-1" points="1006.05 393.77 983.21 386.01 996.86 340.91 1006.05 393.77"/><path d="M1006.05,394.27l-.16,0-22.84-7.76a.5.5,0,0,1-.32-.62l13.65-45.11a.5.5,0,0,1,1,.06l9.19,52.87a.5.5,0,0,1-.49.59Zm-22.22-8.58,21.58,7.33-8.69-50Z"/><polygon class="cls-1" points="1011.57 425.53 975.71 448.81 1006.05 393.77 1011.57 425.53"/><path d="M975.71,449.31a.5.5,0,0,1-.44-.74l30.34-55a.5.5,0,0,1,.93.16l5.52,31.75a.5.5,0,0,1-.22.5L976,449.23A.5.5,0,0,1,975.71,449.31Zm30.09-54-28.69,52,33.91-22Z"/><polygon class="cls-1" points="983.21 386.01 1006.05 393.77 975.71 448.81 983.21 386.01"/><path d="M975.71,449.31l-.15,0a.5.5,0,0,1-.34-.54l7.5-62.79a.5.5,0,0,1,.66-.41l22.84,7.76a.5.5,0,0,1,.28.71l-30.34,55A.5.5,0,0,1,975.71,449.31Zm7.92-62.62-7.12,59.63,28.81-52.26Z"/><polygon class="cls-1" points="955.04 397.13 975.71 448.81 983.21 386.01 955.04 397.13"/><path d="M975.71,449.31a.5.5,0,0,1-.46-.31l-20.67-51.67a.5.5,0,0,1,.28-.65L983,385.55a.5.5,0,0,1,.68.52l-7.5,62.79a.5.5,0,0,1-.43.44Zm-20-51.89,19.76,49.39,7.17-60Z"/><polygon class="cls-1" points="963.19 366.87 925.07 389.58 955.04 397.13 963.19 366.87"/><path d="M955,397.63l-.12,0-30-7.55a.5.5,0,0,1-.13-.91l38.12-22.71a.5.5,0,0,1,.74.56l-8.15,30.26A.5.5,0,0,1,955,397.63Zm-28.67-8.24,28.32,7.13,7.7-28.59Z"/><polygon class="cls-1" points="963.98 419.47 954.32 431.84 955.04 397.13 963.98 419.47"/><path d="M954.32,432.34a.5.5,0,0,1-.5-.51l.72-34.71a.5.5,0,0,1,.41-.48.51.51,0,0,1,.55.31l8.94,22.34a.5.5,0,0,1-.07.49l-9.66,12.37A.5.5,0,0,1,954.32,432.34Zm1.17-32.74-.64,30.75,8.56-11Z"/><path class="cls-1" d="M928.74,435.25c.14-1.54-3.67-45.67-3.67-45.67l30,7.55Z"/><path d="M928.74,435.75l-.17,0a.5.5,0,0,1-.33-.51c.11-1.26-2.61-33.33-3.67-45.58a.5.5,0,0,1,.17-.42.49.49,0,0,1,.45-.1l30,7.55a.5.5,0,0,1,.29.77l-26.3,38.12A.5.5,0,0,1,928.74,435.75Zm-3.11-45.51c.45,5.24,3.1,36.08,3.55,43.5l25-36.29Z"/><polygon class="cls-1" points="954.32 431.84 928.74 435.25 955.04 397.13 954.32 431.84"/><path d="M928.74,435.75a.5.5,0,0,1-.41-.78l26.3-38.12a.5.5,0,0,1,.91.29l-.72,34.71a.5.5,0,0,1-.43.49l-25.58,3.41Zm25.77-37L929.79,434.6l24-3.2Zm-.19,33.06h0Z"/><polygon class="cls-1" points="910.15 403.11 928.74 435.25 925.07 389.58 910.15 403.11"/><path d="M928.74,435.75a.5.5,0,0,1-.43-.25l-18.59-32.14a.5.5,0,0,1,.1-.62l14.92-13.53a.5.5,0,0,1,.83.33l3.67,45.67a.5.5,0,0,1-.35.52Zm-18-32.54,17.28,29.87-3.41-42.45Z"/><polygon class="cls-1" points="969.19 344.59 953.24 323.3 850.95 381.82 801.86 455.12 910.15 403.11 925.07 389.58 963.19 366.87 969.19 344.59"/><path d="M801.86,455.62a.5.5,0,0,1-.42-.78l49.08-73.3a.49.49,0,0,1,.17-.16L953,322.87a.5.5,0,0,1,.65.13l16,21.29a.5.5,0,0,1,.08.43l-6,22.28a.5.5,0,0,1-.23.3L925.33,390l-14.84,13.47-.12.08-108.29,52A.5.5,0,0,1,801.86,455.62Zm49.43-73.42-48,71.68,106.57-51.19,14.87-13.48,38-22.67,5.89-21.85L953.1,324Z"/><polygon class="cls-1" points="943.48 310.28 953.24 323.3 850.95 381.82 943.48 310.28"/><path d="M850.95,382.32a.5.5,0,0,1-.31-.9l92.53-71.54a.51.51,0,0,1,.37-.1.5.5,0,0,1,.33.2l9.76,13a.5.5,0,0,1-.15.73L851.19,382.25A.49.49,0,0,1,850.95,382.32ZM943.38,311,857,377.81l95.55-54.65Z"/><path class="cls-1" d="M822.3,222,780.8,218.8c1.68-.43,3.26-.82,5.52-1.22,6.38-1.16-4.43-1.15-12.59-3.79-4-1.31-5.77-3.38-14.75-3.47s-18.08-2.37-22.53-3.51-3.61.24-7.69-9.67-6.3-13.76-10.38-25c-4-10.83-10.94-24.56-11.36-25.41l29.58,1.53L755.22,174l60.57,25,12.94-6.39,47.33,22.16Z"/><path d="M822.3,222.48h0l-41.49-3.18a.5.5,0,0,1-.09-1c1.58-.41,3.2-.81,5.56-1.23l.58-.11c-.69-.13-1.6-.28-2.51-.42a72.17,72.17,0,0,1-10.72-2.29,30.16,30.16,0,0,1-2.85-1.12c-2.54-1.11-5.17-2.25-11.75-2.32-9.34-.1-19-2.59-22.65-3.53-.52-.13-1-.23-1.35-.32-3-.66-3-.8-5.93-7.84l-.74-1.8c-1.52-3.69-2.77-6.51-4-9.24-2-4.47-3.85-8.7-6.42-15.74a268.39,268.39,0,0,0-11.15-25l-.19-.38a.5.5,0,0,1,0-.5.48.48,0,0,1,.44-.22l29.58,1.53a.5.5,0,0,1,.38.21l18.53,25.55,60.23,24.89,12.74-6.29a.51.51,0,0,1,.43,0l47.33,22.16a.5.5,0,0,1-.15.95l-53.76,7.23ZM784,218.54l38.28,2.94,52-7-45.57-21.33L816,199.44a.49.49,0,0,1-.41,0l-60.57-25a.5.5,0,0,1-.21-.17l-18.48-25.47-28.48-1.47a266.7,266.7,0,0,1,11,24.7c2.56,7,4.42,11.22,6.39,15.67,1.21,2.73,2.46,5.56,4,9.26l.74,1.8c2.74,6.7,2.74,6.7,5.23,7.25.4.09.85.19,1.38.33,3.61.93,13.2,3.4,22.41,3.5,6.79.07,9.51,1.26,12.14,2.41a29.38,29.38,0,0,0,2.76,1.09,71.28,71.28,0,0,0,10.57,2.26c3.46.54,4.28.67,4.29,1.39s-.61.8-2.34,1.12C785.52,218.23,784.73,218.39,784,218.54Z"/><path class="cls-1" d="M736.61,148.29l-36.08-1.88s-.07-.1-.23-.28a43.35,43.35,0,0,1-4.67-9c-2.7-6.61-9.43-7.66-11.59-10.2L663.2,102.4l57.89,12.81,11.07,27Z"/><path d="M736.61,148.79h0l-36.08-1.88a.5.5,0,0,1-.38-.21l-.2-.25a43.39,43.39,0,0,1-4.75-9.1c-1.72-4.2-5.16-6.09-7.93-7.6a12.82,12.82,0,0,1-3.58-2.46l-20.84-24.57a.5.5,0,0,1,.49-.81l57.89,12.81a.5.5,0,0,1,.35.3l11,26.93,4.42,6a.5.5,0,0,1-.4.79Zm-35.83-2.87,34.81,1.82-3.83-5.25a.49.49,0,0,1-.06-.11l-11-26.74-56.19-12.43,19.88,23.44a12.3,12.3,0,0,0,3.3,2.23c2.91,1.59,6.52,3.57,8.37,8.1a43,43,0,0,0,4.61,8.85Z"/><path class="cls-1" d="M706.64,288.45s-4.29.08-10.29,0a8.75,8.75,0,0,1-4.26-1.14l1.95-6.49c-.21,6.3,2.39,1,6.78-4.63s5.56-12.93,6.85-21.46,5.87-12.9,9.64-16.89,6-9.06,17-17.07,18.6,2.54,31.66.8a106.32,106.32,0,0,0,14.8-2.77L822.3,222l-90.8,12Z"/><path d="M701.21,289c-1.43,0-3.07,0-4.86,0a9.19,9.19,0,0,1-4.5-1.2.5.5,0,0,1-.24-.58l1.95-6.49a.5.5,0,0,1,1,.16c-.07,2,.19,2.33.22,2.36.39-.1,1.84-2.11,3-3.73.79-1.09,1.68-2.33,2.66-3.58,4.38-5.6,5.53-13.19,6.75-21.23s5.43-12.59,9.14-16.49l.63-.67c1-1.06,1.92-2.22,2.89-3.46A63.06,63.06,0,0,1,734,220.37c6.62-4.8,12.14-3.08,18-1.26,4.22,1.32,8.58,2.68,13.91,2a106,106,0,0,0,14.74-2.76h.16l41.49,3.18a.5.5,0,0,1,0,1l-90.53,12L707.1,288.66a.5.5,0,0,1-.44.29S704.5,289,701.21,289Zm5.43-.54h0Zm-14-1.38a8.17,8.17,0,0,0,3.67.89c5,.06,8.86,0,10,0L731,233.79a.5.5,0,0,1,.39-.29l86.06-11.39-36.64-2.81a107.23,107.23,0,0,1-14.78,2.76c-5.55.74-10.22-.72-14.34-2-5.84-1.82-10.89-3.4-17.1,1.11a62.22,62.22,0,0,0-14,13.48c-1,1.25-1.92,2.44-2.95,3.53l-.64.67c-3.61,3.79-7.7,8.08-8.87,16-1.24,8.17-2.41,15.89-7,21.7-1,1.24-1.85,2.47-2.64,3.55-2.26,3.14-3.22,4.39-4.18,4.07a1,1,0,0,1-.62-.66Z"/><path class="cls-1" d="M675.06,205.36c-9.51,1.06-36.48-4.69-41.8-.53h0l-43-4.69,108.84-53c0,.17,0,1.11.07,6.16.08,6.19,5.54,20.93,7.84,31.32s1.49,16.77-3.75,20.08S684.57,204.34,675.06,205.36Z"/><path d="M695.86,206.59c-2.47,0-5.22-.22-8-.44a72.22,72.22,0,0,0-12.71-.29c-3.81.42-10.29-.22-17.15-.9-10-1-21.33-2.12-24.39.27a.51.51,0,0,1-.24.1h-.15l-43-4.69a.5.5,0,0,1-.16-.95l108.84-53a.5.5,0,0,1,.72.46c0,.13,0,.66,0,2.87l0,3.26c0,3.66,2,10.41,4.12,17.56,1.37,4.68,2.79,9.52,3.71,13.66,2.46,11.13,1.27,17.29-4,20.61C701.69,206.24,699,206.59,695.86,206.59ZM679,204.67c2.89,0,5.94.24,8.93.48,6.23.5,12.11,1,15.07-.9,4.83-3.05,5.89-8.9,3.53-19.55-.91-4.11-2.32-8.93-3.69-13.59-2.11-7.21-4.11-14-4.16-17.83l0-3.26c0-1,0-1.66,0-2.1L592,199.83l41.09,4.48c3.55-2.49,14.43-1.4,24.95-.36,6.81.68,13.24,1.32,16.95.9h0A37.13,37.13,0,0,1,679,204.67Z"/><path class="cls-1" d="M590.23,200.14l73-97.74L684,127c-2.16-2.53.85,8,1.76,13.25a52.79,52.79,0,0,1-2.7,6.46c-2.23,4.82-5.16,3.47-12.93,8.13s-16.23,9.41-21.91,13.37-12.91,4.75-19.56,10.13-6,6-6,6Z"/><path d="M590.23,200.64a.5.5,0,0,1-.4-.8l73-97.74a.5.5,0,0,1,.39-.2.49.49,0,0,1,.4.18l20.84,24.57a.5.5,0,0,1-.66.74,62.38,62.38,0,0,0,1.39,7.33c.43,1.91.87,3.89,1.14,5.41a.5.5,0,0,1,0,.22,52.69,52.69,0,0,1-2.73,6.53c-1.44,3.13-3.19,3.82-6.09,5a43.37,43.37,0,0,0-7,3.39c-2.13,1.28-4.31,2.56-6.47,3.83-5.81,3.42-11.31,6.65-15.41,9.52a41.46,41.46,0,0,1-8.27,4.07c-3.73,1.5-7.58,3.06-11.26,6-5,4.12-5.75,5.34-5.85,5.59a.5.5,0,0,1-.28.5l-32.43,15.81A.5.5,0,0,1,590.23,200.64Zm73-97.44-71.35,95.58L622.19,184c.16-.52,1.05-1.89,6.19-6.09,3.8-3.07,7.72-4.66,11.52-6.19a40.72,40.72,0,0,0,8.07-4c4.14-2.89,9.65-6.13,15.48-9.56,2.16-1.27,4.34-2.55,6.46-3.83a44.13,44.13,0,0,1,7.18-3.46c2.85-1.12,4.27-1.69,5.55-4.45a60,60,0,0,0,2.64-6.28c-.26-1.48-.69-3.39-1.11-5.24-1.27-5.64-1.65-7.74-1.25-8.5ZM623,184l0,.06Zm0,0h0Zm0,0h0Z"/><path class="cls-1" d="M692.09,287.32c-3.12-1.71-5.31-5-9.78-7.58-6.21-3.53-10.42-6.59-18.7-11s-15.74-11.14-16.46-9.9L595.86,219l-5.62-18.83,43,4.69c-5.1,4.2,40.33,7.07,51.68,8.83s18.21,1.69,23.11,5-.19,8.94-6,23.2-7.71,32.62-7.94,39v0Z"/><path d="M692.09,287.82a.5.5,0,0,1-.24-.06,22,22,0,0,1-4.14-3.24,30.47,30.47,0,0,0-5.64-4.34c-2.46-1.4-4.57-2.7-6.8-4.08-3.39-2.09-6.89-4.25-11.89-6.91A109.85,109.85,0,0,1,653,262.58c-2.26-1.57-4.82-3.34-5.49-3.38a.49.49,0,0,1-.26.14.48.48,0,0,1-.4-.1l-51.29-39.88a.5.5,0,0,1-.17-.25l-5.62-18.83a.5.5,0,0,1,.09-.46.51.51,0,0,1,.44-.18l43,4.69a.5.5,0,0,1,.26.88c-.14.12-.23.23-.21.29.72,2.37,23.38,4.65,36.92,6,6.28.63,11.7,1.18,14.73,1.65,2.85.43,5.45.76,7.74,1,7.11.89,11.8,1.48,15.58,4,3.95,2.6,2,6.64-1.44,14-1.33,2.8-2.83,6-4.42,9.84-5.84,14.28-7.69,32.84-7.91,38.79a.3.3,0,0,1,0,.16l-1.95,6.49a.5.5,0,0,1-.29.32A.51.51,0,0,1,692.09,287.82ZM647.45,258.2c.95,0,2.65,1.16,6.11,3.56a109.05,109.05,0,0,0,10.28,6.55c5,2.67,8.54,4.84,11.94,6.94,2.23,1.37,4.33,2.67,6.77,4.06a31.21,31.21,0,0,1,5.82,4.47,24.76,24.76,0,0,0,3.41,2.79l1.74-5.8c.27-7.46,2.29-25.22,8-39.12,1.6-3.89,3.17-7.22,4.44-9.89,3.44-7.27,5-10.58,1.79-12.71-3.58-2.39-8.18-3-15.15-3.84-2.3-.29-4.9-.61-7.77-1s-8.42-1-14.68-1.64c-21.59-2.17-36.93-3.93-37.78-6.72a1,1,0,0,1,0-.55l-41.43-4.52,5.36,18,50.89,39.57.06,0Z"/><path class="cls-1" d="M690.81,323l-29.73-7.82,8.91-6.83c-1.8,4.28,9.33-2.84,14.64-6s4.23-4.46,8.67-3a19.42,19.42,0,0,1,6.76,3.52Z"/><path d="M690.81,323.52l-.13,0L661,315.69a.5.5,0,0,1-.18-.88l8.91-6.83a.5.5,0,0,1,.77.59c-.2.48-.15.63-.15.63,1,.64,8.89-4.14,12.24-6.17l1.83-1.11a31.53,31.53,0,0,0,3.38-2.33c1.91-1.48,2.49-1.79,5.7-.75a19.76,19.76,0,0,1,6.94,3.63.5.5,0,0,1,.12.58l-9.26,20.18A.5.5,0,0,1,690.81,323.52ZM662.19,315l28.33,7.45L699.45,303a20.38,20.38,0,0,0-6.3-3.19c-2.83-.91-3.09-.71-4.78.59a32.37,32.37,0,0,1-3.48,2.4l-1.83,1.1c-8.13,4.94-12.22,7.1-13.43,6.05a.92.92,0,0,1-.29-.44Z"/><path class="cls-1" d="M661.08,315.21,595.86,219l51.29,39.88h0c-.62,1.34,16.11,19.07,21.4,22.58s11.08,9.85,13.58,12.27S671.84,304,670,308.34c0,0,0,0,0,0Z"/><path d="M661.08,315.71H661a.5.5,0,0,1-.33-.21l-65.22-96.24a.5.5,0,0,1,.72-.67l51.29,39.88a.5.5,0,0,1,.18.52v0c.63,2.19,16.08,18.62,21.18,22,4.27,2.83,8.79,7.41,11.77,10.45.74.75,1.37,1.39,1.87,1.88a1.53,1.53,0,0,1,.48,1.16c0,1.81-2.9,4.38-6.21,7.35-2.7,2.42-5.5,4.92-6.24,6.68l0,.08a.49.49,0,0,1-.14.16l-8.91,6.83A.5.5,0,0,1,661.08,315.71Zm-63-94.4,63.15,93.18,8.4-6.43c.88-2,3.71-4.49,6.45-6.95s5.85-5.24,5.88-6.62a.53.53,0,0,0-.17-.42c-.51-.49-1.15-1.14-1.89-1.89-3-3-7.43-7.54-11.61-10.31-3.64-2.41-20.54-19.18-21.57-22.73Z"/><path class="cls-1" d="M694,280.83v0c.23-6.34,2.09-24.66,7.94-39s11-20,6-23.2-11.74-3.24-23.11-5-56.78-4.63-51.68-8.83h0c5.32-4.16,32.29,1.59,41.8.53s22.94,2.62,28.18-.69,6-9.72,3.75-20.08-7.76-25.13-7.84-31.32c-.06-5-.08-6-.07-6.16l1.45-.72,6.47.32,0,0c.42.85,7.4,14.58,11.36,25.41,4.08,11.2,6.31,15,10.38,25s3.23,8.52,7.69,9.67S750,210.22,759,210.31s10.71,2.16,14.75,3.47c8.16,2.64,19,2.63,12.59,3.79-2.26.41-3.84.79-5.52,1.22a106.32,106.32,0,0,1-14.8,2.77c-13.06,1.74-20.67-8.78-31.66-.8s-13.26,13.09-17,17.07-8.37,8.39-9.64,16.89-2.47,15.86-6.85,21.46S693.83,287.12,694,280.83Z"/><path d="M694.69,284.18a.93.93,0,0,1-.3-.05c-.69-.23-.92-1.16-.85-3.32h0c.28-7.56,2.3-25.29,8-39.16,1.6-3.89,3.17-7.22,4.44-9.89,3.44-7.27,5-10.58,1.79-12.71-3.58-2.39-8.18-3-15.15-3.84-2.3-.29-4.9-.61-7.77-1s-8.42-1-14.68-1.64c-21.59-2.17-36.93-3.93-37.78-6.72a1.22,1.22,0,0,1,.53-1.35l.11-.07c3.46-2.56,14.43-1.47,25-.42,6.81.68,13.24,1.32,16.95.9a72.82,72.82,0,0,1,12.9.29c6.23.5,12.11,1,15.07-.9,4.83-3.05,5.89-8.9,3.53-19.55-.91-4.11-2.32-8.93-3.69-13.59-2.11-7.21-4.11-14-4.16-17.83l0-3.26c0-2.25,0-2.78,0-2.91a.5.5,0,0,1,.28-.44l1.45-.72a.43.43,0,0,1,.25-.05l6.47.32a.5.5,0,0,1,.32.14.74.74,0,0,1,.14.17l.19.37A269.51,269.51,0,0,1,718.85,172c2.56,7,4.42,11.22,6.39,15.67,1.21,2.73,2.46,5.56,4,9.26l.74,1.8c2.74,6.7,2.74,6.7,5.23,7.25.4.09.85.19,1.38.33,3.61.93,13.2,3.4,22.41,3.5,6.79.07,9.51,1.26,12.14,2.41a29.38,29.38,0,0,0,2.76,1.09,71.28,71.28,0,0,0,10.57,2.26c3.46.54,4.28.67,4.29,1.39s-.61.8-2.34,1.12c-2.32.42-3.92.81-5.48,1.21a107,107,0,0,1-14.86,2.78c-5.55.74-10.22-.72-14.34-2-5.84-1.82-10.89-3.4-17.1,1.11a62.22,62.22,0,0,0-14,13.48c-1,1.25-1.92,2.44-2.95,3.53l-.64.67c-3.61,3.79-7.7,8.08-8.87,16-1.24,8.17-2.41,15.89-7,21.7-1,1.24-1.85,2.47-2.64,3.55C696.55,282.87,695.57,284.18,694.69,284.18Zm-61.21-78.9c-.1.1-.16.18-.15.23.72,2.37,23.38,4.65,36.92,6,6.28.63,11.7,1.18,14.73,1.65,2.85.43,5.45.76,7.74,1,7.11.89,11.8,1.48,15.58,4,3.95,2.6,2,6.64-1.44,14-1.33,2.8-2.83,6-4.42,9.84-5.84,14.28-7.69,32.84-7.91,38.79,0,0,0,0,0,0-.07,2,.19,2.33.22,2.36.39-.1,1.84-2.11,3-3.73.79-1.09,1.68-2.33,2.66-3.58,4.38-5.6,5.53-13.19,6.75-21.23s5.43-12.59,9.14-16.49l.63-.67c1-1.06,1.92-2.22,2.89-3.46A63.06,63.06,0,0,1,734,220.37c6.62-4.8,12.14-3.08,18-1.26,4.22,1.32,8.57,2.68,13.91,2a106,106,0,0,0,14.74-2.76c1.58-.41,3.2-.81,5.56-1.23l.58-.11c-.69-.13-1.6-.28-2.51-.42a72.17,72.17,0,0,1-10.72-2.29,30.16,30.16,0,0,1-2.85-1.12c-2.54-1.11-5.17-2.25-11.75-2.32-9.34-.1-19-2.59-22.65-3.53-.52-.13-1-.23-1.35-.32-3-.66-3-.8-5.93-7.84l-.74-1.8c-1.52-3.69-2.77-6.51-4-9.24-2-4.47-3.85-8.7-6.42-15.74a268.39,268.39,0,0,0-11.15-25l-.07-.14-6.06-.3-1.05.52c0,.35,0,1.08,0,2.57l0,3.26c0,3.66,2,10.41,4.12,17.56,1.37,4.68,2.79,9.52,3.71,13.66,2.46,11.13,1.27,17.29-4,20.61-3.24,2-9.29,1.57-15.68,1.05a72.22,72.22,0,0,0-12.71-.29c-3.81.42-10.29-.22-17.15-.9-10-1-21.33-2.12-24.39.27Z"/><path class="cls-1" d="M699.08,147.12v0l1.45-.68Z"/><path d="M699.08,147.62a.49.49,0,0,1-.24-.06.5.5,0,0,1-.26-.38v0a.5.5,0,0,1,.28-.52l1.45-.68a.5.5,0,0,1,.43.9l-1.45.72A.5.5,0,0,1,699.08,147.62Z"/><path class="cls-1" d="M670,308.38s0,0,0,0c1.82-4.32,14.59-12.22,12.09-14.64s-8.28-8.76-13.58-12.27-22-21.24-21.4-22.58h0c.72-1.24,8.26,5.48,16.46,9.9s12.5,7.46,18.7,11c4.48,2.54,6.66,5.87,9.78,7.58a8.75,8.75,0,0,0,4.26,1.14c6,.07,10.29,0,10.29,0l-3.25,7.09-3.33,7.31a19.42,19.42,0,0,0-6.76-3.52c-4.44-1.43-3.33-.15-8.67,3S668.19,312.66,670,308.38Z"/><path d="M670.47,310.2a1.24,1.24,0,0,1-.84-.26c-.41-.35-.44-.94-.1-1.76h0l0-.07c.85-2,3.71-4.53,6.48-7s5.85-5.24,5.88-6.62a.53.53,0,0,0-.17-.42c-.51-.49-1.15-1.14-1.89-1.89-3-3-7.43-7.54-11.61-10.31-3.85-2.55-22.53-21.16-21.58-23.21a.5.5,0,0,1,.16-.2.81.81,0,0,1,.41-.22c.9-.2,2.59.94,6.33,3.54a109.05,109.05,0,0,0,10.28,6.55c5,2.67,8.54,4.84,11.94,6.94,2.23,1.37,4.33,2.67,6.77,4.06a31.21,31.21,0,0,1,5.82,4.47,21,21,0,0,0,3.95,3.1,8.23,8.23,0,0,0,4,1.08c5.92.07,10.23,0,10.27,0a.56.56,0,0,1,.43.23.5.5,0,0,1,0,.48L700.52,303a.5.5,0,0,1-.79.16,19.19,19.19,0,0,0-6.57-3.42c-2.83-.91-3.09-.71-4.78.59a32.37,32.37,0,0,1-3.48,2.4l-1.83,1.1C676.27,308,672.3,310.2,670.47,310.2Zm0-1.59c-.19.46-.14.6-.14.6,1,.64,8.89-4.14,12.24-6.17l1.83-1.11a31.53,31.53,0,0,0,3.38-2.33c1.91-1.48,2.49-1.79,5.7-.75a21.54,21.54,0,0,1,6.42,3.2l6-13.08c-1.51,0-5.06.05-9.51,0a9.19,9.19,0,0,1-4.5-1.2,22,22,0,0,1-4.14-3.24,30.47,30.47,0,0,0-5.64-4.34c-2.46-1.4-4.57-2.7-6.8-4.08-3.39-2.09-6.89-4.25-11.89-6.91A109.85,109.85,0,0,1,653,262.58a36.85,36.85,0,0,0-5.28-3.34c1.44,2.92,16.14,18.49,21.09,21.77,4.27,2.83,8.79,7.41,11.77,10.45.74.75,1.37,1.39,1.87,1.88a1.53,1.53,0,0,1,.48,1.16c0,1.81-2.9,4.38-6.21,7.35-2.7,2.42-5.5,4.92-6.24,6.68ZM647.6,258.93"/><path class="cls-1" d="M622.66,184.33s-.58-.62,6-6,13.88-6.2,19.56-10.13,14.15-8.71,21.91-13.37,10.7-3.31,12.93-8.13a52.79,52.79,0,0,0,2.7-6.46c-.92-5.24-3.92-15.78-1.76-13.25s8.89,3.59,11.59,10.2a43.35,43.35,0,0,0,4.67,9c.16.19.23.28.23.28Z"/><path d="M622.66,184.83a.5.5,0,0,1-.37-.16.69.69,0,0,1-.15-.45c0-.32.09-1.29,6.23-6.31,3.8-3.07,7.72-4.66,11.52-6.19a40.72,40.72,0,0,0,8.07-4c4.14-2.89,9.65-6.13,15.48-9.56,2.16-1.27,4.34-2.55,6.46-3.83a44.13,44.13,0,0,1,7.18-3.46c2.85-1.12,4.27-1.69,5.55-4.45a60,60,0,0,0,2.64-6.28c-.26-1.48-.69-3.39-1.11-5.24-1.49-6.66-1.76-8.38-1-8.79.54-.27,1,.3,1.19.49a12.29,12.29,0,0,0,3.3,2.23c2.91,1.59,6.52,3.57,8.37,8.1a43,43,0,0,0,4.61,8.85c.16.18.23.29.23.29a.5.5,0,0,1-.19.74l-77.86,37.92A.5.5,0,0,1,622.66,184.83Zm61.1-57.41a63.49,63.49,0,0,0,1.39,7.31c.43,1.91.87,3.89,1.14,5.41a.5.5,0,0,1,0,.22,52.69,52.69,0,0,1-2.73,6.53c-1.44,3.13-3.19,3.82-6.09,5a43.37,43.37,0,0,0-7,3.39c-2.13,1.28-4.31,2.56-6.47,3.83-5.81,3.42-11.31,6.65-15.41,9.52a41.46,41.46,0,0,1-8.27,4.07c-3.73,1.5-7.58,3.06-11.26,6a54.41,54.41,0,0,0-4.91,4.38l75.65-36.84a45.14,45.14,0,0,1-4.59-8.87c-1.72-4.2-5.16-6.09-7.93-7.6A13.71,13.71,0,0,1,683.76,127.42Z"/></g></g></svg>