<svg id="Группа_21" data-name="Группа 21" xmlns="http://www.w3.org/2000/svg" xmlns:xlink="http://www.w3.org/1999/xlink" width="1920" height="796.5" viewBox="0 0 1280 531">
  <metadata><?xpacket begin="﻿" id="W5M0MpCehiHzreSzNTczkc9d"?>
<x:xmpmeta xmlns:x="adobe:ns:meta/" x:xmptk="Adobe XMP Core 5.6-c142 79.160924, 2017/07/13-01:06:39        ">
   <rdf:RDF xmlns:rdf="http://www.w3.org/1999/02/22-rdf-syntax-ns#">
      <rdf:Description rdf:about=""/>
   </rdf:RDF>
</x:xmpmeta>
                                                                                                    
                                                                                                    
                                                                                                    
                                                                                                    
                                                                                                    
                                                                                                    
                                                                                                    
                                                                                                    
                                                                                                    
                                                                                                    
                                                                                                    
                                                                                                    
                                                                                                    
                                                                                                    
                                                                                                    
                                                                                                    
                                                                                                    
                                                                                                    
                                                                                                    
                                                                                                    
                           
<?xpacket end="w"?></metadata>
<defs>
    <style>
      .cls-1, .cls-2, .cls-3 {
        fill-rule: evenodd;
      }

      .cls-1 {
        fill: url(#linear-gradient);
      }

      .cls-2 {
        fill: #fff;
      }

      .cls-3 {
        fill: none;
        stroke: #fff;
        stroke-width: 1px;
        stroke-dasharray: 4 2;
        opacity: 0.5;
      }
    </style>
    <linearGradient id="linear-gradient" x1="862.688" y1="4380" x2="406.312" y2="4905" gradientUnits="userSpaceOnUse">
      <stop offset="-0.5" stop-color="#0884c0"/>
      <stop offset="1.5" stop-color="#5bec83"/>
    </linearGradient>
  </defs>
  <path id="Прямоугольник_549_копия_3" data-name="Прямоугольник 549 копия 3" class="cls-1" d="M-366,4380H1635v515s-450.31-44-576-44c-78.552,0-160.944,54-261,54-97.9,0-201.6-46-300-46-100.848,0-195.248,43-280.052,43C86.291,4902-366,4829-366,4829V4380Z" transform="translate(0 -4380)"/>
  <path id="Эллипс_2_копия_9" data-name="Эллипс 2 копия 9" class="cls-2" d="M223,4894.97a6.015,6.015,0,1,1-6,6.01A6,6,0,0,1,223,4894.97Z" transform="translate(0 -4380)"/>
  <path id="Эллипс_2_копия_18" data-name="Эллипс 2 копия 18" class="cls-2" d="M493,4851.97a6.015,6.015,0,1,1-6,6.01A6,6,0,0,1,493,4851.97Z" transform="translate(0 -4380)"/>
  <path id="Прямоугольник_544_копия_23" data-name="Прямоугольник 544 копия 23" class="cls-3" d="M222,4896.09V4851" transform="translate(0 -4380)"/>
  <path id="Прямоугольник_544_копия_24" data-name="Прямоугольник 544 копия 24" class="cls-3" d="M492,4857.09V4812" transform="translate(0 -4380)"/>
  <path id="Эллипс_2_копия_19" data-name="Эллипс 2 копия 19" class="cls-2" d="M790,4898.97a6.015,6.015,0,1,1-6,6.01A6,6,0,0,1,790,4898.97Z" transform="translate(0 -4380)"/>
  <path id="Прямоугольник_544_копия_25" data-name="Прямоугольник 544 копия 25" class="cls-3" d="M789,4904.09V4859" transform="translate(0 -4380)"/>
  <path id="Эллипс_2_копия_21" data-name="Эллипс 2 копия 21" class="cls-2" d="M1055,4843.97a6.015,6.015,0,1,1-6,6.01A6.007,6.007,0,0,1,1055,4843.97Z" transform="translate(0 -4380)"/>
  <path id="Прямоугольник_544_копия_26" data-name="Прямоугольник 544 копия 26" class="cls-3" d="M1054,4849.09V4804" transform="translate(0 -4380)"/>
</svg>
