<svg xmlns="http://www.w3.org/2000/svg" viewBox="0 0 1713 692.42"><defs><style>.cls-1{opacity:0.15;}.cls-2{stroke:#fff;stroke-linecap:round;stroke-linejoin:round;}</style></defs><title>conditions</title><g id="Слой_2" data-name="Слой 2"><g id="Слой_1-2" data-name="Слой 1"><g class="cls-1"><polygon class="cls-2" points="319.05 228.89 0.55 453.45 104.66 202.95 319.05 228.89"/><polygon class="cls-2" points="487.08 0.5 319.05 228.89 104.66 202.95 487.08 0.5"/><path class="cls-2" d="M160,553.78l317.24-50c-2.18-2.32-2.15-5.35-.82-9,3.5-9.73,17.67-13.16,26.82-24.14,5.6-6.66,13.65-8.67,24.53-8.64L319,228.86.5,453.43Z"/><polygon class="cls-2" points="487.08 0.5 1080.99 29.32 319.05 228.89 487.08 0.5"/><path class="cls-2" d="M623.63,479.08l569.06-103.32L1276.81,228,1081,29.35,319,228.86,527.74,462c6.43-.1,13.79.58,22.16,1.28,22.8,2.1,38.62-3,63.76,7.58C620.9,473.91,623.74,476.59,623.63,479.08Z"/><path class="cls-2" d="M904.49,672.09l288.2-296.33L623.63,479.08c0,6.16-17.11,11-26.73,15.78-6,3-12.76,7.24-19.68,10.63l52,31.46c-2.73-7.74,57.21,21.64,83.23,30.76s56.09,32.47,81.81,35.85,51.44,34.94,70.68,50.27A91.52,91.52,0,0,0,904.49,672.09Z"/><path class="cls-2" d="M754,690.48c-7.49-.2-31-10.45-31.79-21.43s-3.35-15.53-8.33-36.23,3-18.38,10.52-20.2c-18.21-15.85-36.72-24.6-63.47-40.3-34.64-20.33-21.33-6.19-31.67-35.4l-52-31.46c-8.69,4.31-17.69,7.28-25.43,4.19-13.87-5.52-11.76-2.37-42.57-1-19.2.91-28.57-1-32-4.87L160,553.78,739.92,690.31Z"/><path class="cls-2" d="M1432.86,490.74l279.63-258L1276.81,228l-84.11,147.8,39.61,27.63s20.36,14.14,36.1,25.15l6.45,4.49.79.52c15.65,10.48,32.07,9.17,57.64,18,26,8.94,21.47,9.65,41.53,22.55S1432.86,490.74,1432.86,490.74Z"/><path class="cls-2" d="M1359.88,534c-19.24,6.43-10.88-7.65-36.89-44.85s-30.91-20.37-63.56-46.62-16.32-12.76-27.12-39.14l-39.61-27.63L885.25,691.92,1370,530.65C1366.67,531.73,1363.23,532.92,1359.88,534Z"/><polygon class="cls-2" points="1080.99 29.32 1712.49 232.71 1276.84 227.92 1080.99 29.32"/><path class="cls-2" d="M1359.88,534c3.36-1.08,6.8-2.26,10.15-3.34,9-3,17.62-5.8,23.37-7.72,1.24-.47,2.39-.83,3.34-1.17,2.4-.75,3.83-1.25,3.83-1.25l32.28-29.77s-38-3.75-58-16.65-15.54-13.61-41.53-22.55c-25.57-8.82-42-7.52-57.64-18l-.79-.52c-2-1.33-4.19-2.92-6.45-4.49-15.74-11-36.1-25.15-36.1-25.15,10.81,26.38-5.52,12.89,27.12,39.14s37.55,9.41,63.56,46.62S1340.64,540.42,1359.88,534Z"/><path class="cls-2" d="M885.25,691.92l19.24-19.83a91.52,91.52,0,0,1-39.55-18.27c-19.24-15.33-45-46.88-70.68-50.27s-55.79-26.73-81.81-35.85-86-38.5-83.23-30.76c10.34,29.21-3,15.06,31.67,35.4,26.75,15.7,45.26,24.44,63.47,40.3,0,0,6.4-3.49,16.32,3.85s22.39,19.33,36.78,28.17,12.91,7.14,28.05,7.33c14.14.25,71.52,35.08,78.53,39.3.23.15.44.21.55.28l.22.15A2.92,2.92,0,0,1,885.25,691.92Z"/><path class="cls-2" d="M884.82,691.71l-.22-.15c-.11-.07-.32-.13-.55-.28-7-4.22-64.38-39.05-78.53-39.3-15.14-.19-13.66,1.51-28.05-7.33s-26.77-20.93-36.78-28.17-16.32-3.85-16.32-3.85c-7.47,1.82-15.38-.42-10.52,20.2s7.41,25.27,8.33,36.23,24.3,21.23,31.79,21.43l.1,0c2.43.08,16.76.21,35.23.42,3,0,6.25,0,9.48.07,3.72,0,7.65,0,11.6.1l13.31.11C855,691.46,884.82,691.71,884.82,691.71Z"/><path class="cls-2" d="M577.22,505.48c6.92-3.38,13.7-7.67,19.68-10.63,9.62-4.82,26.69-9.62,26.73-15.78.11-2.5-2.73-5.17-10-8.25-25.14-10.54-41-5.48-63.76-7.58-8.37-.7-15.73-1.38-22.16-1.28-10.89,0-18.93,2-24.53,8.64-9.15,11-23.32,14.41-26.82,24.14-1.33,3.7-1.36,6.73.82,9,3.43,3.87,12.8,5.78,32,4.87,30.81-1.37,28.71-4.52,42.57,1C559.52,512.77,568.52,509.79,577.22,505.48Z"/></g></g></g></svg>