<svg xmlns="http://www.w3.org/2000/svg" xmlns:xlink="http://www.w3.org/1999/xlink" viewBox="0 0 70.99 60"><defs><style>.cls-1{fill:url(#Безымянный_градиент_9);}</style><linearGradient id="Безымянный_градиент_9" y1="30" x2="70.99" y2="30" gradientUnits="userSpaceOnUse"><stop offset="0" stop-color="#39b54a"/><stop offset="1" stop-color="#29abe2"/></linearGradient></defs><title>first-stone</title><g id="Слой_2" data-name="Слой 2"><g id="Слой_1-2" data-name="Слой 1"><path class="cls-1" d="M70.88,26.94,57.73,10.63h0l0,0h0a.49.49,0,0,0-.17-.1h0L25.18,0a.5.5,0,0,0-.5.11L7.59,16.29v0h0l0,0h0a.5.5,0,0,0-.09.15h0L0,40.81s0,0,0,0a.25.25,0,0,0,0,.22.44.44,0,0,0,0,.06.49.49,0,0,0,.14.21L22.79,59.89h0l0,0L23,60h0l.13,0h0l24.77-2.06a.5.5,0,0,0,.3-.14l14.33-13.7s0,0,0,0a.49.49,0,0,0,.07-.08h0l8.28-16.48A.5.5,0,0,0,70.88,26.94Z"/></g></g></svg>