<?xml version="1.0" encoding="utf-8"?>
<!-- Generator: Adobe Illustrator 21.0.0, SVG Export Plug-In . SVG Version: 6.00 Build 0)  -->
<svg version="1.1" id="_x24__xA0_Изображение_1_" opacity="0.9"
	 xmlns="http://www.w3.org/2000/svg" xmlns:xlink="http://www.w3.org/1999/xlink" x="0px" y="0px" viewBox="0 0 945.4 945.5"
	 style="enable-background:new 0 0 945.4 945.5;" xml:space="preserve">
<style type="text/css">
	.st0{fill:#495286;}
	.st1{fill:#6E78B0;}
	.st2{fill:#616BA4;}
	.st3{fill:#56629E;}
	.st4{fill:#646DA7;}
	.st5{fill:#58639F;}
	.st6{fill:#81B599;}
	.st7{fill:#BDF1C0;}
	.st8{fill:#ABE0AE;}
	.st9{fill:#6FA495;}
	.st10{fill:#99CAA6;}
	.st11{display:none;}
	.st12{display:inline;fill:#99CAA6;}
</style>
<polygon class="st0" points="0,388.3 18,602.5 177,838.2 362.1,945.5 664.6,896.9 777.5,838.2 889.5,718.4 943.5,426.3 921.5,372.3 
	797.5,132.3 767.5,98.3 403.5,4.3 307.5,22.3 128.5,126.3 "/>
<polygon class="st1" points="344.4,15.4 387.5,145.3 681.5,325.3 787.5,357.3 767.5,98.3 407.5,1 "/>
<polygon class="st2" points="787.5,357.3 913.9,586.2 945,418.4 921.5,372.3 808,140 767.5,98.3 "/>
<polygon class="st3" points="913.9,586.2 787.5,357.3 681.5,325.3 747.5,610 747.5,774.8 777.5,838.2 889.5,718.4 "/>
<polygon class="st4" points="387.4,145 109.4,326.5 225.4,708 457.4,793 649.4,762 747.4,609.7 681.4,325 "/>
<polygon class="st5" points="387.5,145.3 344.4,15.4 301.5,25.8 128.5,126.3 0,388.3 10.4,469.3 109.5,326.8 "/>
<line class="st6" x1="424.2" y1="40" x2="513" y2="257"/>
<polygon class="st7" points="445.4,444.9 512.3,567 565.9,527.8 475.6,425.5 "/>
<polygon class="st7" points="564,10.4 513,257 845.8,278 808,140 767.5,98.3 "/>
<polygon class="st7" points="596,627.9 576,773.9 634,697.2 "/>
<polygon class="st7" points="307.5,22.3 420.6,62.5 407.5,1 "/>
<polygon class="st8" points="512.3,567 452,818.4 484.8,788.6 547,582.9 565.9,527.8 "/>
<polygon class="st8" points="892.6,305.2 845.8,278 808,140 "/>
<polygon class="st8" points="407.5,1 434,125.9 513,257 599.8,222.6 578.7,36.8 "/>
<polygon class="st9" points="403.3,825 325,690.1 311,714 403.3,849.4 "/>
<polygon class="st9" points="120,671 18,602.1 70.6,707.6 154.5,779.5 "/>
<polygon class="st9" points="124.8,377.2 182.5,567 120,521.3 "/>
<line class="st10" x1="279.4" y1="581.8" x2="234" y2="541"/>
<polygon class="st6" points="513,257 845.8,278 599.8,222.6 "/>
<polygon class="st6" points="64,613.7 18,602.5 0,388.3 56.5,504.6 "/>
<polygon class="st8" points="325,690.1 403.3,825 452,818.4 "/>
<polygon class="st6" points="172,532.2 182.5,567 296,492.6 "/>
<polygon class="st10" points="477,241.4 434,125.9 374.1,104.9 465.1,231.1 "/>
<polygon class="st10" points="776.5,273.6 758,318.2 634,364.9 513,257 "/>
<polygon class="st6" points="488.4,365.9 479.7,375.6 528,459 592,499 620,496.9 "/>
<polygon class="st6" points="241,232.7 211.1,231.4 182.5,279.1 "/>
<polygon class="st10" points="423.2,279.1 308,245 338,287 "/>
<polygon class="st8" points="465.1,231.1 308,245 312.2,140.4 374.1,104.9 "/>
<polygon class="st8" points="471.8,349.3 427.4,305.2 415.2,355.1 "/>
<polygon class="st9" points="634,364.9 758,318.2 808,375.3 800,504.2 749.4,411.2 694,379 "/>
<polygon class="st8" points="776.5,273.6 758,318.2 808,375.3 845.8,278 "/>
<polygon class="st10" points="800,504.2 850,365 845.8,278 808,375.3 "/>
<polygon class="st6" points="325,690.1 311.4,516.3 281.4,581.8 311,714 "/>
<polygon class="st10" points="634,364.9 620,496.9 427.4,305.2 473.7,312.1 "/>
<polygon class="st8" points="172,532.2 124.8,377.2 211.1,297 415.2,369.5 445.4,444.9 "/>
<polygon class="st6" points="634,364.9 513,257 473.7,312.1 "/>
<polygon class="st7" points="211.1,297 365.6,352 340,329 "/>
<polygon class="st6" points="892.6,305.2 845.8,278 850,365 896,475.9 "/>
<polygon class="st8" points="896,475.9 913.9,586.2 945,418.4 892.6,305.2 "/>
<polygon class="st7" points="308,245 312.2,140.4 238.1,177 241,232.7 "/>
<polygon class="st10" points="120,671 64,613.4 18,602.1 "/>
<polygon class="st6" points="590.6,667.2 549.6,723.2 553,788.5 576,773.9 "/>
<polygon class="st10" points="407.5,1 564,10.4 578.7,36.8 "/>
<polygon class="st6" points="477,241.4 423.2,279.1 308,245 465.1,231.1 "/>
<polygon class="st6" points="423.2,322.5 340,329 365.6,352 415.2,357.4 "/>
<polygon class="st8" points="351.9,38.1 128.5,126.3 307.5,22.3 "/>
<polygon class="st7" points="352.5,117.7 290.7,120.8 312.2,140.4 "/>
<polygon class="st8" points="238.6,164 241,232.7 211.1,231.4 "/>
<polygon class="st6" points="694,379 758,318.2 808,375.3 800,504.2 733,404 "/>
<polygon class="st10" points="445.4,444.9 475.6,425.5 468.3,386.4 415.2,369.5 "/>
<polygon class="st9" points="281.4,581.8 210.1,548.9 296,492.6 311.4,516.3 "/>
<polygon class="st6" points="311.4,516.3 484.6,516.3 445.4,444.9 296,492.6 "/>
<polygon class="st10" points="311.4,516.3 325,690.1 452,818.4 512.3,567 484.6,516.3 "/>
<polygon class="st8" points="634,364.9 597.9,474.9 620,496.9 "/>
<polygon class="st8" points="578.7,36.8 808,140 767.5,98.3 564,10.4 "/>
<polygon class="st9" points="308,245 182.5,279.1 241,232.7 "/>
<polygon class="st9" points="365.6,352 471.8,349.3 488.4,365.9 468.6,388 "/>
<polygon class="st10" points="312.2,140.4 239.1,177 238.6,164 290.7,120.8 "/>
<polygon class="st9" points="808,375.3 733,404 800,504.2 "/>
<polygon class="st9" points="493.1,284.8 513,257 434,125.9 "/>
<polygon class="st6" points="452,818.4 403.3,825 403.3,849.4 "/>
<g id="Слой_19" class="st11">
	<polygon class="st12" points="997,114 1027,125.9 1049,180.8 1105,192 1147,170 1187,196 1187,242.4 1223,310 1206,383.4 1295,494 
		1345,494 1363,447.4 1407,408.5 1423,304 1473,220 1507,214 1529,158 1457,148 1397,78 1379.3,15.4 1401,4.3 1439,88 1503,128 
		1531,125.9 1537.9,98.3 1569,72 1569,28 1547,15.4 1495,15.4 1497,-34 1545,-10 1563,15.4 1619,4.3 1697,98.3 1697,125.9 1751,58 
		1751,-20 1775,34 1809,58 1809,125.9 1821,206 1837,168 1837,46 1797,-88 1711,-226 1533,-348 1369,-378 1201,-356 1051,-274 
		985,-200 975,-151 1045,-218 1122.1,-300 1157,-268 1307,-314 1379.3,-290 1279,-262 1231,-194 1199,-196 1207,-240 1153,-176 
		1173,-150.7 1122.1,-139.6 1122.1,-84 1223,-126 1249,-84 1337,-60 1329,-20 1253,-20 1237,-50 1149,-80 1059,-18 1021,32 	"/>
	<polygon class="st12" points="905,15.4 904.4,24.1 889,231.1 943.5,357.3 1013,408.5 991,300 935,242.4 927,125.9 	"/>
	<polygon class="st12" points="1507,288 1545,357.3 1487,434 1447,447.4 1471,370.4 	"/>
</g>
</svg>
