<svg xmlns="http://www.w3.org/2000/svg" viewBox="0 0 367.81 222.43"><defs><style>.cls-1{fill:#1a7dae;}.cls-2{fill:#145e83;}.cls-3{fill:#4897be;}.cls-4{fill:#53a173;}.cls-5{fill:#3e7956;}.cls-6{fill:#75b48f;}.cls-7{fill:#65ac61;}.cls-8{fill:#4c8149;}.cls-9{fill:#84bd81;}.cls-10{fill:#8fc476;}.cls-11{fill:#6b9359;}.cls-12{fill:#a5d091;}</style></defs><title>graph-right</title><g id="Слой_2" data-name="Слой 2"><g id="Слой_1-2" data-name="Слой 1"><polygon class="cls-1" points="22.77 25.11 0 219.71 49.19 222.43 63.79 42.29 22.77 25.11"/><polygon class="cls-2" points="63.79 42.29 82.11 2.36 85.34 205.14 49.19 222.43 63.79 42.29"/><polygon class="cls-3" points="22.77 25.11 56.24 0 82.11 2.36 63.79 42.29 22.77 25.11"/><polygon class="cls-4" points="134.28 100.17 115.7 212.55 164.4 215.77 175.11 115.12 134.28 100.17"/><polygon class="cls-5" points="175.11 115.12 192.39 93.65 198.66 199.95 164.4 215.77 175.11 115.12"/><polygon class="cls-6" points="134.28 100.17 164.22 75.57 192.39 93.65 175.11 115.12 134.28 100.17"/><polygon class="cls-7" points="229.95 161.77 222.25 214.95 258.69 219.16 261.17 171.21 229.95 161.77"/><polygon class="cls-8" points="261.17 171.21 272.87 161.8 283.33 213.4 258.69 219.16 261.17 171.21"/><polygon class="cls-9" points="229.95 161.77 250.91 151.54 272.87 161.8 261.17 171.21 229.95 161.77"/><polygon class="cls-10" points="307.67 179.93 304.02 213.75 342.49 219.49 341.12 188.63 307.67 179.93"/><polygon class="cls-11" points="341.12 188.63 352.58 183.5 367.81 217.8 342.49 219.49 341.12 188.63"/><polygon class="cls-12" points="307.67 179.93 328.75 175.04 352.58 183.5 341.12 188.63 307.67 179.93"/></g></g></svg>