<svg xmlns="http://www.w3.org/2000/svg" viewBox="0 0 116.47 98.17"><defs><style>.cls-1{fill:#fff;}</style></defs><title>k1</title><g id="Слой_2" data-name="Слой 2"><g id="Слой_1-2" data-name="Слой 1"><polygon class="cls-1" points="40.8 0 12.36 26.88 0 67.32 37.62 98.17 78.84 94.74 102.69 71.94 116.47 44.52 94.58 17.37 40.8 0"/><polygon class="cls-1" points="56.13 37.35 79.84 32.95 77.24 49.26 56.13 37.35"/><path d="M77.24,49.76A.5.5,0,0,1,77,49.7L55.88,37.79a.5.5,0,0,1,.15-.93l23.71-4.4a.51.51,0,0,1,.44.13.5.5,0,0,1,.14.44l-2.6,16.31a.5.5,0,0,1-.49.42ZM57.57,37.59,76.86,48.47l2.37-14.9Z"/><polygon class="cls-1" points="32.26 55.95 56.13 37.35 30.43 38.66 32.26 55.95"/><path d="M32.26,56.45a.5.5,0,0,1-.5-.45L29.93,38.71a.5.5,0,0,1,.47-.55l25.7-1.31a.49.49,0,0,1,.49.33.5.5,0,0,1-.16.57L32.56,56.34A.5.5,0,0,1,32.26,56.45ZM31,39.13,32.66,55,54.57,37.93Z"/><polygon class="cls-1" points="65.06 69 77.24 49.26 56.13 37.35 32.26 55.95 65.06 69"/><path d="M65.06,69.5a.49.49,0,0,1-.19,0L32.07,56.41a.5.5,0,0,1-.12-.86L55.82,37a.5.5,0,0,1,.55,0L77.49,48.82a.5.5,0,0,1,.18.7L65.49,69.26A.5.5,0,0,1,65.06,69.5ZM33.25,55.81l31.6,12.57L76.54,49.44,56.17,38Z"/><polygon class="cls-1" points="23 62.96 32.26 55.95 30.43 38.66 23 62.96"/><path d="M23,63.46a.5.5,0,0,1-.48-.65L30,38.51a.49.49,0,0,1,.53-.35.5.5,0,0,1,.45.44L32.75,55.9a.5.5,0,0,1-.2.45l-9.26,7A.5.5,0,0,1,23,63.46Zm7.19-22.31L23.93,61.63l7.8-5.91Z"/><polygon class="cls-1" points="84.71 65.74 65.06 69 45.61 81.5 70.38 79.44 84.71 65.74"/><path d="M45.61,82a.5.5,0,0,1-.27-.92l19.45-12.5a.5.5,0,0,1,.19-.07l19.65-3.26a.5.5,0,0,1,.43.85L70.73,79.8a.5.5,0,0,1-.3.14L45.65,82ZM65.24,69.48,47.57,80.84,70.16,79l13-12.46Z"/><polygon class="cls-1" points="79.84 32.95 92.99 49.26 84.71 65.74 77.24 49.26 79.84 32.95"/><path d="M84.71,66.24h0a.5.5,0,0,1-.45-.29L76.79,49.47a.5.5,0,0,1,0-.29l2.6-16.31a.5.5,0,0,1,.88-.24L93.38,48.95a.5.5,0,0,1,.06.54L85.16,66A.5.5,0,0,1,84.71,66.24Zm-7-17,7,15.39L92.4,49.32,80.16,34.14Z"/><polygon class="cls-1" points="65.06 69 84.71 65.74 77.24 49.26 65.06 69"/><path d="M65.06,69.5a.5.5,0,0,1-.43-.76L76.82,49a.5.5,0,0,1,.88.06l7.47,16.48a.5.5,0,0,1-.37.7L65.14,69.49ZM77.17,50.32l-11.11,18,17.92-3Z"/><polygon class="cls-1" points="23 62.96 45.61 81.5 32.26 55.95 23 62.96"/><path d="M45.61,82a.5.5,0,0,1-.32-.11L22.68,63.35a.5.5,0,0,1,0-.79l9.26-7a.5.5,0,0,1,.75.17L46.05,81.27a.5.5,0,0,1-.44.73ZM23.81,63,44,79.56,32.09,56.71Z"/><polygon class="cls-1" points="65.06 69 32.26 55.95 45.61 81.5 65.06 69"/><path d="M45.61,82l-.13,0a.5.5,0,0,1-.32-.25L31.81,56.18a.5.5,0,0,1,.63-.7l32.8,13.05a.5.5,0,0,1,.09.88L45.88,81.93A.5.5,0,0,1,45.61,82ZM33.32,56.91,45.8,80.79,64,69.11Z"/><polygon class="cls-1" points="30.43 38.66 47.52 22.5 79.84 32.95 56.13 37.35 30.43 38.66"/><path d="M30.43,39.16a.5.5,0,0,1-.34-.86L47.18,22.14a.5.5,0,0,1,.5-.11L80,32.47a.5.5,0,0,1-.06,1l-23.71,4.4L30.46,39.16ZM47.65,23.07l-15.89,15L56.1,36.85l21.7-4Z"/></g></g></svg>