<svg xmlns="http://www.w3.org/2000/svg" viewBox="0 0 115.48 103.16"><defs><style>.cls-1{fill:#fff;}</style></defs><title>k2</title><g id="Слой_2" data-name="Слой 2"><g id="Слой_1-2" data-name="Слой 1"><polygon class="cls-1" points="115.48 69.35 107.56 20.81 86.75 0 86.75 0 86.75 0 86.75 0 86.75 0 41.03 5.86 15.53 25.06 0 56.86 36.05 102.72 86.87 103.16 86.87 103.17 86.87 103.16 86.87 103.16 86.87 103.16 115.48 69.35"/><polygon class="cls-1" points="92.84 63.84 75.65 84.17 66.78 65.85 88.08 34.67 92.84 63.84"/><path d="M75.65,84.66h-.06a.5.5,0,0,1-.39-.28L66.32,66.07a.5.5,0,0,1,0-.5L87.67,34.39a.5.5,0,0,1,.91.2l4.76,29.17a.5.5,0,0,1-.11.4L76,84.49A.5.5,0,0,1,75.65,84.66Zm-8.3-18.77,8.41,17.36L92.31,63.7,87.79,36Z"/><polygon class="cls-1" points="66.78 65.85 23.44 56.34 54.44 29.39 66.78 65.85"/><path d="M66.77,66.35h-.11L23.34,56.82a.5.5,0,0,1-.22-.87L54.11,29a.5.5,0,0,1,.8.22L67.25,65.69a.5.5,0,0,1-.47.66ZM24.52,56.06,66,65.17,54.21,30.26Z"/><polygon class="cls-1" points="75.65 84.16 45.11 83.89 23.44 56.34 66.77 65.85 75.65 84.16"/><path d="M75.65,84.66h0L45.1,84.4a.5.5,0,0,1-.39-.19L23,56.65a.5.5,0,0,1,.5-.8l43.33,9.51a.5.5,0,0,1,.34.27L76.1,83.95a.5.5,0,0,1-.45.72ZM45.35,83.4l29.5.26L66.43,66.28,24.7,57.12Z"/><polygon class="cls-1" points="88.08 34.67 66.78 65.85 54.44 29.39 88.08 34.67"/><path d="M66.77,66.35h-.07A.5.5,0,0,1,66.3,66L54,29.55a.5.5,0,0,1,.55-.65l33.64,5.28a.5.5,0,0,1,.34.78L67.19,66.13A.5.5,0,0,1,66.77,66.35ZM55.18,30,66.93,64.74,87.23,35Z"/><polygon class="cls-1" points="88.08 34.67 54.44 29.39 75.58 22.16 88.08 34.67"/><path d="M88.08,35.17H88L54.36,29.88a.5.5,0,0,1-.08-1l21.14-7.22a.5.5,0,0,1,.52.12L88.44,34.32a.5.5,0,0,1-.35.85Zm-31.57-6,30.13,4.73-11.2-11.2Z"/><polygon class="cls-1" points="23.44 56.34 32.78 37.23 54.44 29.39 23.44 56.34"/><path d="M23.44,56.84a.5.5,0,0,1-.45-.72L32.33,37a.5.5,0,0,1,.28-.25l21.67-7.84a.5.5,0,0,1,.5.85l-31,26.95A.5.5,0,0,1,23.44,56.84Zm9.7-19.21L25,54.34,52.09,30.77Z"/><polygon class="cls-1" points="75.58 22.16 48.1 25.69 54.44 29.39 75.58 22.16"/><path d="M54.44,29.89a.5.5,0,0,1-.25-.07l-6.34-3.7a.5.5,0,0,1,.19-.93l27.48-3.52a.5.5,0,0,1,.23,1L54.6,29.86ZM49.62,26l4.87,2.84,16.25-5.55Z"/><polygon class="cls-1" points="32.78 37.23 48.1 25.69 54.44 29.39 32.78 37.23"/><path d="M32.78,37.72a.5.5,0,0,1-.3-.9L47.8,25.29a.5.5,0,0,1,.55,0L54.69,29a.5.5,0,0,1-.08.9L32.95,37.7A.5.5,0,0,1,32.78,37.72ZM48.14,26.29l-12.4,9.33,17.53-6.34Z"/></g></g></svg>