<svg xmlns="http://www.w3.org/2000/svg" viewBox="0 0 101.55 102.66"><defs><style>.cls-1{fill:#fff;}</style></defs><title>k3</title><g id="Слой_2" data-name="Слой 2"><g id="Слой_1-2" data-name="Слой 1"><polygon class="cls-1" points="0 35.76 3.15 88.58 36.88 102.66 93.39 91.17 101.55 38.91 40.77 0 0 35.76"/><polygon class="cls-1" points="81.51 48.68 65.25 66.5 76.61 80.08 81.51 48.68"/><path d="M76.61,80.59a.5.5,0,0,1-.38-.18L64.87,66.82a.5.5,0,0,1,0-.66L81.14,48.34a.5.5,0,0,1,.86.41l-4.9,31.4a.5.5,0,0,1-.36.4ZM65.91,66.51,76.28,78.92l4.47-28.67Z"/><polygon class="cls-1" points="44.98 25.29 65.25 66.5 81.51 48.68 44.98 25.29"/><path d="M65.25,67h-.07a.5.5,0,0,1-.38-.27L44.53,25.52a.5.5,0,0,1,.72-.64L81.78,48.26a.5.5,0,0,1,.1.76L65.62,66.84A.5.5,0,0,1,65.25,67Zm-19-40.32L65.37,65.62,80.74,48.78Z"/><polygon class="cls-1" points="42.64 86.99 65.25 66.5 76.61 80.08 42.64 86.99"/><path d="M42.64,87.49a.5.5,0,0,1-.34-.87L64.91,66.13a.5.5,0,0,1,.72,0L77,79.76a.5.5,0,0,1-.28.81l-34,6.9ZM65.2,67.22,44.33,86.14l31.36-6.37Z"/><polygon class="cls-1" points="44.98 25.29 30.5 48.68 65.25 66.5 44.98 25.29"/><path d="M65.25,67a.5.5,0,0,1-.23-.06L30.28,49.13a.5.5,0,0,1-.2-.71L44.56,25A.48.48,0,0,1,45,24.8a.5.5,0,0,1,.42.28L65.7,66.28a.5.5,0,0,1-.45.72Zm-34-18.52L64.13,65.37l-19.2-39Z"/><polygon class="cls-1" points="42.64 86.99 30.5 48.68 65.25 66.5 42.64 86.99"/><path d="M42.64,87.49l-.13,0a.5.5,0,0,1-.35-.33L30,48.83a.5.5,0,0,1,.7-.6L65.48,66.05a.5.5,0,0,1,.11.82L43,87.36A.5.5,0,0,1,42.64,87.49ZM31.34,49.67,42.88,86.1,64.38,66.61Z"/><polygon class="cls-1" points="44.98 25.29 20.48 46.79 30.5 48.68 44.98 25.29"/><path d="M30.5,49.18h-.09l-10-1.89a.5.5,0,0,1-.24-.87l24.5-21.49a.5.5,0,0,1,.75.64L30.93,48.94A.5.5,0,0,1,30.5,49.18Zm-8.92-2.69,8.68,1.64L42.79,27.88Z"/><polygon class="cls-1" points="42.64 86.99 22.37 78.53 20.48 46.79 30.5 48.68 42.64 86.99"/><path d="M42.64,87.49a.5.5,0,0,1-.19,0L22.18,79a.5.5,0,0,1-.31-.43L20,46.82a.5.5,0,0,1,.59-.52l10,1.89a.5.5,0,0,1,.38.34L43.12,86.84a.5.5,0,0,1-.48.65ZM22.85,78.18l19,7.93-11.72-37L21,47.4Z"/></g></g></svg>