<svg xmlns="http://www.w3.org/2000/svg" viewBox="0 0 114.28 97.61"><defs><style>.cls-1{fill:#fff;}</style></defs><title>k4</title><g id="Слой_2" data-name="Слой 2"><g id="Слой_1-2" data-name="Слой 1"><polygon class="cls-1" points="42.81 0 15.4 19.67 0 53.33 12.53 93.43 78.54 97.61 114.28 37.36 77.87 0.96 42.81 0"/><polygon class="cls-1" points="66.07 34.49 61.86 53.63 36.58 52.02 31.52 31.79 47.99 19.97 66.07 34.49"/><path d="M61.86,54.13h0L36.54,52.52a.5.5,0,0,1-.45-.38L31,31.91a.5.5,0,0,1,.19-.53L47.7,19.56a.5.5,0,0,1,.6,0L66.39,34.1a.5.5,0,0,1,.18.5L62.35,53.74A.5.5,0,0,1,61.86,54.13ZM37,51.54l24.49,1.56,4.05-18.42L48,20.6,32.09,32Z"/><polygon class="cls-1" points="62.43 68.22 29.8 76.12 36.58 52.02 61.86 53.63 62.43 68.22"/><path d="M29.8,76.62a.5.5,0,0,1-.48-.64l6.78-24.1a.51.51,0,0,1,.51-.36l25.28,1.61a.5.5,0,0,1,.47.48l.57,14.58a.5.5,0,0,1-.38.51L29.91,76.6Zm7.15-24.08L30.51,75.43l31.4-7.61L61.38,54.1Z"/><polygon class="cls-1" points="31.52 31.79 22.27 52.02 29.8 76.12 36.58 52.02 31.52 31.79"/><path d="M29.8,76.62a.5.5,0,0,1-.48-.35l-7.53-24.1a.5.5,0,0,1,0-.36l9.25-20.23a.49.49,0,0,1,.5-.29.5.5,0,0,1,.44.38L37.06,51.9a.5.5,0,0,1,0,.26l-6.78,24.1a.5.5,0,0,1-.47.36Zm-7-24.57,7,22.31L36.06,52,31.38,33.3Z"/><polygon class="cls-1" points="66.07 34.49 90.95 42.42 69.07 20.55 47.99 19.97 66.07 34.49"/><path d="M90.95,42.92l-.15,0L65.92,35a.5.5,0,0,1-.16-.09L47.68,20.36a.5.5,0,0,1,.33-.89L69.08,20a.5.5,0,0,1,.34.15L91.3,42.07a.5.5,0,0,1-.35.85ZM66.31,34l22.82,7.28L68.85,21l-19.39-.53Z"/><polygon class="cls-1" points="62.43 68.22 90.95 42.42 66.07 34.49 61.86 53.63 62.43 68.22"/><path d="M62.43,68.72a.5.5,0,0,1-.5-.48l-.57-14.58a.48.48,0,0,1,0-.13l4.21-19.14a.5.5,0,0,1,.64-.37L91.1,41.95a.5.5,0,0,1,.18.85L62.76,68.59A.5.5,0,0,1,62.43,68.72Zm-.07-15,.52,13.45L90,42.64,66.44,35.13Z"/><polygon class="cls-1" points="69.47 78.63 29.8 76.12 62.43 68.22 69.47 78.63"/><path d="M69.47,79.13h0L29.77,76.62a.5.5,0,0,1-.09-1l32.63-7.9a.5.5,0,0,1,.53.21l7,10.42a.5.5,0,0,1-.41.78Zm-36.35-3.3,35.36,2.24-6.28-9.28Z"/><polygon class="cls-1" points="90.95 42.42 69.47 78.63 62.43 68.22 90.95 42.42"/><path d="M69.47,79.13a.5.5,0,0,1-.41-.22L62,68.5a.5.5,0,0,1,.08-.65L90.61,42.05a.5.5,0,0,1,.77.63L69.9,78.89a.5.5,0,0,1-.42.25ZM63.09,68.3l6.36,9.4L88.83,45Z"/></g></g></svg>