<svg xmlns="http://www.w3.org/2000/svg" viewBox="0 0 111.48 97.28"><defs><style>.cls-1{fill:#fff;}</style></defs><title>k5</title><g id="Слой_2" data-name="Слой 2"><g id="Слой_1-2" data-name="Слой 1"><polygon class="cls-1" points="111.46 78.02 111.48 78 111.46 77.99 106.56 13.45 60.36 0 0 39.73 27.63 96.03 26.71 97.28 28.21 97.23 28.24 97.28 28.28 97.23 78.87 95.41 111.08 78.22 111.48 78.35 111.46 78.02"/><polygon class="cls-1" points="92.48 68.92 89.52 29.92 56.21 40.7 58.8 58.17 92.48 68.92"/><path d="M92.48,69.42l-.15,0L58.65,58.65a.5.5,0,0,1-.34-.4L55.72,40.78a.5.5,0,0,1,.34-.55L89.37,29.44a.5.5,0,0,1,.65.44l3,39a.5.5,0,0,1-.5.54ZM59.25,57.79,91.93,68.22,89.07,30.59,56.77,41Z"/><polygon class="cls-1" points="25.48 45.71 56.21 40.7 61.76 21.83 25.48 45.71"/><path d="M25.48,46.21a.5.5,0,0,1-.27-.92L61.49,21.42a.5.5,0,0,1,.75.56L56.69,40.84a.5.5,0,0,1-.4.35l-30.73,5ZM60.9,23,27.72,44.84l28.1-4.58Z"/><polygon class="cls-1" points="89.52 29.92 61.76 21.83 56.21 40.7 89.52 29.92"/><path d="M56.21,41.2a.5.5,0,0,1-.48-.64l5.55-18.87a.5.5,0,0,1,.62-.34l27.76,8.09a.5.5,0,0,1,0,1L56.36,41.18ZM62.1,22.45,57,39.93l30.86-10Z"/><polygon class="cls-1" points="58.8 58.17 42.46 80.3 25.48 45.71 56.21 40.7 58.8 58.17"/><path d="M42.46,80.8h0a.5.5,0,0,1-.4-.28L25,45.93a.5.5,0,0,1,.37-.71l30.73-5a.5.5,0,0,1,.58.42L59.29,58.1a.5.5,0,0,1-.09.37L42.86,80.59A.5.5,0,0,1,42.46,80.8ZM26.23,46.09,42.54,79.34,58.27,58,55.79,41.28Z"/><polygon class="cls-1" points="92.48 68.71 72.88 79.17 41.53 80.3 58.18 57.77 92.48 68.71"/><path d="M41.54,80.8a.5.5,0,0,1-.4-.8L57.78,57.47a.5.5,0,0,1,.55-.18L92.64,68.23a.5.5,0,0,1,.08.92L73.12,79.61a.49.49,0,0,1-.22.06L41.55,80.8ZM58.37,58.35,42.55,79.76l30.19-1.08L91.2,68.83Z"/></g></g></svg>