<svg xmlns="http://www.w3.org/2000/svg" viewBox="0 0 937.55 499.88"><defs><style>.cls-1{opacity:0.1;}.cls-2{stroke:#fff;stroke-miterlimit:10;}</style></defs><title>slider</title><g id="Слой_2" data-name="Слой 2"><g id="Слой_1-2" data-name="Слой 1"><g class="cls-1"><path class="cls-2" d="M811.87,414.51l124-164.69L850.87,110l2.24,125.44L774.65,408.88c5.1-.33,11.32-.79,19.5-1.46C804,406.58,809.38,409.53,811.87,414.51Z"/><path class="cls-2" d="M848,481.67l87.82-231.85-124,164.69c3.22,6.51,1.54,16.48-1.56,26.25-1.7,5.32-4.37,8.5-7.92,10.15Z"/><polygon class="cls-2" points="735.97 39.76 853.15 235.4 850.84 110 798.25 0.72 735.97 39.76"/><path class="cls-2" d="M2.43,10.59s17-7.54,48.76,13.07,28.12.59,47.67,13.64-9.6-3.71,11.35,12.82,20.42,8.23,20.42,8.23L736,39.76l62.28-39Z"/><path class="cls-2" d="M714.88,427.26c-7.19-10.33,19-12.71,37-15.79,8-1.37,13.78-1.88,22.79-2.59l78.46-173.44L736,39.76,130.63,58.33s-7.28,215.6-.86,242.56-5.33,26.57-1.59,49,71.48,84.23,71.48,84.23Z"/><path class="cls-2" d="M802.39,450.92c-8,3.87-20.43-.06-35.61-4.66-21.91-6.68-43.54-7.95-51.66-18.58-.08-.14-.23-.27-.24-.41l-515.21,6.84s13,21.82,27.5,45.92,21.07,18.88,21.07,18.88L848,481.67Z"/><path class="cls-2" d="M207.56,484.84C190.48,474,189.88,464.53,168.94,448s-60.46-52.34-68.36-66.13-1.51-23.72-20.09-58.27S55.89,304.91,40,276.14,94.7,191.71,74.2,145.37,18.88,66.71,9.66,50.62s-7.23-40-7.23-40,17-7.54,48.76,13.07,28.12.59,47.67,13.64-9.6-3.71,11.35,12.82,20.42,8.23,20.42,8.23-7.28,215.58-.88,242.56-5.33,26.54-1.57,48.93,71.46,84.28,71.46,84.28,13.09,21.8,27.49,45.89c6.31,10.56,11.14,15.49,14.58,17.7C233.5,496,219.06,492.13,207.56,484.84Z"/><path class="cls-2" d="M802.39,450.92c3.55-1.65,6.22-4.83,7.92-10.15,3.1-9.77,4.78-19.74,1.56-26.25-2.49-5-7.88-7.93-17.72-7.09-8.17.66-14.39,1.13-19.5,1.46-9,.72-14.81,1.23-22.79,2.59-18,3.07-44.17,5.46-37,15.79,0,.14.16.28.24.41,8.12,10.63,29.75,11.9,51.66,18.58C782,450.86,794.42,454.79,802.39,450.92Z"/></g></g></g></svg>