<svg xmlns="http://www.w3.org/2000/svg" viewBox="0 0 70.99 60"><defs><style>.cls-1{fill:#fff;}</style></defs><title>stage1</title><g id="Слой_2" data-name="Слой 2"><g id="Слой_1-2" data-name="Слой 1"><polygon class="cls-1" points="33.63 15.35 57.34 10.94 54.74 27.26 33.63 15.35"/><path d="M54.74,27.76a.5.5,0,0,1-.25-.06L33.38,15.78a.5.5,0,0,1,.15-.93l23.71-4.4a.51.51,0,0,1,.44.13.5.5,0,0,1,.14.44l-2.6,16.31a.5.5,0,0,1-.49.42ZM35.07,15.59,54.36,26.47l2.37-14.9Z"/><polygon class="cls-1" points="9.76 33.95 33.63 15.35 7.93 16.65 9.76 33.95"/><path d="M9.76,34.44a.5.5,0,0,1-.5-.45L7.43,16.7a.5.5,0,0,1,.47-.55l25.7-1.31a.49.49,0,0,1,.49.33.5.5,0,0,1-.16.57L10.06,34.34A.5.5,0,0,1,9.76,34.44ZM8.48,17.12,10.16,33,32.07,15.93Z"/><polygon class="cls-1" points="42.56 47 54.74 27.26 33.63 15.35 9.76 33.95 42.56 47"/><path d="M42.56,47.5a.49.49,0,0,1-.18,0L9.57,34.41a.5.5,0,0,1-.12-.86L33.32,15a.5.5,0,0,1,.55,0L55,26.82a.5.5,0,0,1,.18.7L43,47.26A.5.5,0,0,1,42.56,47.5ZM10.75,33.8l31.6,12.57L54,27.44,33.67,15.95Z"/><polygon class="cls-1" points="0.5 40.96 9.76 33.95 7.93 16.65 0.5 40.96"/><path d="M.5,41.46A.5.5,0,0,1,0,40.81L7.45,16.51A.49.49,0,0,1,8,16.15a.5.5,0,0,1,.45.44l1.83,17.29a.5.5,0,0,1-.2.45l-9.26,7A.5.5,0,0,1,.5,41.46ZM7.69,19.15,1.43,39.63l7.8-5.91Z"/><polygon class="cls-1" points="62.21 43.73 42.56 47 23.11 59.5 47.88 57.44 62.21 43.73"/><path d="M23.11,60a.5.5,0,0,1-.27-.92l19.45-12.5a.5.5,0,0,1,.19-.07l19.65-3.26a.5.5,0,0,1,.43.85L48.23,57.8a.5.5,0,0,1-.3.14L23.15,60ZM42.74,47.47,25.07,58.84,47.66,57l13-12.46Z"/><polygon class="cls-1" points="57.34 10.94 70.49 27.26 62.21 43.73 54.74 27.26 57.34 10.94"/><path d="M62.21,44.23h0a.5.5,0,0,1-.45-.29L54.29,27.46a.5.5,0,0,1,0-.29l2.6-16.31a.5.5,0,0,1,.88-.24L70.88,26.94a.5.5,0,0,1,.06.54L62.66,44A.5.5,0,0,1,62.21,44.23Zm-7-17,7,15.39L69.9,27.32,57.66,12.13Z"/><polygon class="cls-1" points="42.56 47 62.21 43.73 54.74 27.26 42.56 47"/><path d="M42.56,47.5a.5.5,0,0,1-.43-.76L54.32,27a.5.5,0,0,1,.88.06l7.47,16.48a.5.5,0,0,1-.37.7L42.64,47.49ZM54.67,28.32l-11.11,18,17.92-3Z"/><polygon class="cls-1" points="0.5 40.96 23.11 59.5 9.76 33.95 0.5 40.96"/><path d="M23.11,60a.5.5,0,0,1-.32-.11L.18,41.35a.5.5,0,0,1,0-.79l9.26-7a.5.5,0,0,1,.75.17L23.55,59.27a.5.5,0,0,1-.44.73ZM1.31,41,21.53,57.56,9.59,34.7Z"/><polygon class="cls-1" points="42.56 47 9.76 33.95 23.11 59.5 42.56 47"/><path d="M23.11,60,23,60a.5.5,0,0,1-.32-.25L9.31,34.18a.5.5,0,0,1,.63-.7l32.8,13.05a.5.5,0,0,1,.09.88L23.38,59.92A.5.5,0,0,1,23.11,60ZM10.82,34.91,23.3,58.78,41.47,47.1Z"/><polygon class="cls-1" points="7.93 16.65 25.02 0.5 57.34 10.94 33.63 15.35 7.93 16.65"/><path d="M7.93,17.15a.5.5,0,0,1-.34-.86L24.68.14a.5.5,0,0,1,.5-.11L57.49,10.47a.5.5,0,0,1-.06,1l-23.71,4.4L8,17.15ZM25.15,1.07l-15.89,15L33.6,14.85l21.7-4Z"/></g></g></svg>