<svg xmlns="http://www.w3.org/2000/svg" viewBox="0 0 70.4 63"><defs><style>.cls-1{fill:#fff;}</style></defs><title>stage2</title><g id="Слой_2" data-name="Слой 2"><g id="Слой_1-2" data-name="Слой 1"><polygon class="cls-1" points="69.9 42.18 52.71 62.5 43.83 44.18 65.14 13.01 69.9 42.18"/><path d="M52.71,63h-.06a.5.5,0,0,1-.39-.28L43.38,44.4a.5.5,0,0,1,0-.5L64.73,12.73a.5.5,0,0,1,.91.2L70.39,42.1a.5.5,0,0,1-.11.4L53.09,62.82A.5.5,0,0,1,52.71,63Zm-8.3-18.77,8.41,17.36L69.37,42,64.85,14.32Z"/><polygon class="cls-1" points="43.83 44.18 0.5 34.67 31.5 7.72 43.83 44.18"/><path d="M43.83,44.68h-.11L.39,35.16a.5.5,0,0,1-.22-.87l31-26.95a.5.5,0,0,1,.8.22L44.31,44a.5.5,0,0,1-.47.66ZM1.58,34.4l41.5,9.11L31.26,8.59Z"/><polygon class="cls-1" points="52.71 62.5 22.16 62.23 0.5 34.67 43.83 44.18 52.71 62.5"/><path d="M52.71,63h0l-30.54-.27a.5.5,0,0,1-.39-.19L.11,35a.5.5,0,0,1,.5-.8l43.33,9.51a.5.5,0,0,1,.34.27l8.88,18.32a.5.5,0,0,1-.45.72Zm-30.3-1.27,29.5.26L43.49,44.62,1.75,35.46Z"/><polygon class="cls-1" points="65.14 13.01 43.83 44.18 31.5 7.72 65.14 13.01"/><path d="M43.83,44.68h-.07a.5.5,0,0,1-.41-.33L31,7.88a.5.5,0,0,1,.55-.65l33.64,5.28a.5.5,0,0,1,.34.78L44.25,44.47A.5.5,0,0,1,43.83,44.68ZM32.24,8.35,44,43.07l20.3-29.7Z"/><polygon class="cls-1" points="65.14 13.01 31.5 7.72 52.63 0.5 65.14 13.01"/><path d="M65.14,13.51h-.08L31.42,8.22a.5.5,0,0,1-.08-1L52.47,0A.5.5,0,0,1,53,.15L65.5,12.65a.5.5,0,0,1-.35.85Zm-31.57-6L63.7,12.28,52.5,1.07Z"/><polygon class="cls-1" points="0.5 34.67 9.84 15.56 31.5 7.72 0.5 34.67"/><path d="M.5,35.17a.5.5,0,0,1-.45-.72L9.39,15.34a.5.5,0,0,1,.28-.25L31.33,7.25a.5.5,0,0,1,.5.85L.83,35A.5.5,0,0,1,.5,35.17ZM10.2,16,2,32.68,29.15,9.1Z"/><polygon class="cls-1" points="52.64 0.5 25.16 4.02 31.5 7.72 52.64 0.5"/><path d="M31.5,8.22a.5.5,0,0,1-.25-.07l-6.34-3.7a.5.5,0,0,1,.19-.93L52.57,0a.5.5,0,0,1,.23,1L31.66,8.2ZM26.68,4.33l4.87,2.84L47.8,1.62Z"/><polygon class="cls-1" points="9.84 15.56 25.16 4.02 31.5 7.72 9.84 15.56"/><path d="M9.84,16.06a.5.5,0,0,1-.3-.9L24.86,3.62a.5.5,0,0,1,.55,0l6.34,3.7a.5.5,0,0,1-.08.9L10,16A.5.5,0,0,1,9.84,16.06ZM25.19,4.62,12.8,14,30.33,7.62Z"/></g></g></svg>