<svg xmlns="http://www.w3.org/2000/svg" viewBox="0 0 68 59.47"><defs><style>.cls-1{fill:#fff;}</style></defs><title>stage8</title><g id="Слой_2" data-name="Слой 2"><g id="Слой_1-2" data-name="Слой 1"><polygon class="cls-1" points="67.5 47.59 64.54 8.59 31.23 19.37 33.81 36.84 67.5 47.59"/><path d="M67.5,48.09l-.15,0L33.66,37.32a.5.5,0,0,1-.34-.4L30.73,19.44a.5.5,0,0,1,.34-.55L64.38,8.11a.5.5,0,0,1,.65.44l3,39a.5.5,0,0,1-.5.54ZM34.26,36.46,66.95,46.89,64.09,9.26,31.78,19.72Z"/><polygon class="cls-1" points="0.5 24.38 31.23 19.37 36.78 0.5 0.5 24.38"/><path d="M.5,24.88A.5.5,0,0,1,.23,24L36.5.08a.5.5,0,0,1,.75.56L31.71,19.51a.5.5,0,0,1-.4.35l-30.73,5ZM35.91,1.67,2.73,23.51l28.1-4.58Z"/><polygon class="cls-1" points="64.54 8.59 36.78 0.5 31.23 19.37 64.54 8.59"/><path d="M31.23,19.87a.5.5,0,0,1-.48-.64L36.3.36A.5.5,0,0,1,36.92,0L64.68,8.11a.5.5,0,0,1,0,1L31.38,19.85ZM37.12,1.12,32,18.6l30.86-10Z"/><polygon class="cls-1" points="33.81 36.84 17.47 58.97 0.5 24.38 31.23 19.37 33.81 36.84"/><path d="M17.47,59.47h0a.5.5,0,0,1-.4-.28L.05,24.6a.5.5,0,0,1,.37-.71l30.73-5a.5.5,0,0,1,.58.42l2.59,17.47a.5.5,0,0,1-.09.37L17.88,59.26A.5.5,0,0,1,17.47,59.47ZM1.25,24.76,17.56,58l15.73-21.3L30.81,19.95Z"/><polygon class="cls-1" points="67.5 47.38 47.9 57.84 16.55 58.97 33.19 36.43 67.5 47.38"/><path d="M16.55,59.47a.5.5,0,0,1-.4-.8L32.79,36.14a.5.5,0,0,1,.55-.18L67.65,46.9a.5.5,0,0,1,.08.92L48.13,58.28a.49.49,0,0,1-.22.06L16.57,59.46ZM33.38,37,17.57,58.43l30.19-1.08,18.46-9.85Z"/></g></g></svg>