<svg xmlns="http://www.w3.org/2000/svg" viewBox="0 0 69.68 59.66"><defs><style>.cls-1{fill:#fff;}</style></defs><title>stage4</title><g id="Слой_2" data-name="Слой 2"><g id="Слой_1-2" data-name="Слой 1"><polygon class="cls-1" points="44.31 15.02 40.09 34.16 14.81 32.55 9.75 12.32 26.23 0.5 44.31 15.02"/><path d="M40.09,34.66h0L14.78,33a.5.5,0,0,1-.45-.38L9.27,12.44a.5.5,0,0,1,.19-.53L25.94.09a.5.5,0,0,1,.6,0L44.62,14.63a.5.5,0,0,1,.18.5L40.58,34.27A.5.5,0,0,1,40.09,34.66ZM15.21,32.07,39.7,33.64l4.05-18.42L26.21,1.13,10.32,12.53Z"/><polygon class="cls-1" points="40.66 48.75 8.03 56.65 14.81 32.55 40.09 34.16 40.66 48.75"/><path d="M8,57.15a.5.5,0,0,1-.48-.64l6.78-24.1a.51.51,0,0,1,.51-.36l25.28,1.61a.5.5,0,0,1,.47.48l.57,14.58a.5.5,0,0,1-.38.51L8.15,57.13Zm7.15-24.08L8.74,56l31.4-7.6-.53-13.72Z"/><polygon class="cls-1" points="9.75 12.32 0.5 32.55 8.03 56.65 14.81 32.55 9.75 12.32"/><path d="M8,57.15a.5.5,0,0,1-.48-.35L0,32.7a.5.5,0,0,1,0-.36L9.3,12.11a.49.49,0,0,1,.5-.29.5.5,0,0,1,.44.38l5.06,20.23a.5.5,0,0,1,0,.26L8.51,56.78a.5.5,0,0,1-.47.36ZM1,32.58,8,54.89l6.29-22.35L9.61,13.83Z"/><polygon class="cls-1" points="44.31 15.02 69.18 22.95 47.3 1.08 26.23 0.5 44.31 15.02"/><path d="M69.18,23.45l-.15,0L44.15,15.49a.5.5,0,0,1-.16-.09L25.91.89A.5.5,0,0,1,26.24,0L47.31.58a.5.5,0,0,1,.34.15L69.53,22.6a.5.5,0,0,1-.35.85ZM44.55,14.57l22.82,7.28L47.09,1.57,27.7,1Z"/><polygon class="cls-1" points="40.66 48.75 69.18 22.95 44.31 15.02 40.09 34.16 40.66 48.75"/><path d="M40.66,49.25a.5.5,0,0,1-.5-.48l-.57-14.58a.48.48,0,0,1,0-.13l4.21-19.14a.5.5,0,0,1,.64-.37l24.87,7.94a.5.5,0,0,1,.18.85L41,49.12A.5.5,0,0,1,40.66,49.25Zm-.07-15,.52,13.45L68.2,23.17,44.68,15.66Z"/><polygon class="cls-1" points="47.7 59.16 8.03 56.65 40.66 48.75 47.7 59.16"/><path d="M47.7,59.66h0L8,57.15a.5.5,0,0,1-.09-1l32.63-7.9a.5.5,0,0,1,.53.21l7,10.42a.5.5,0,0,1-.41.78Zm-36.35-3.3L46.72,58.6l-6.28-9.28Z"/><polygon class="cls-1" points="69.18 22.95 47.7 59.16 40.66 48.75 69.18 22.95"/><path d="M47.7,59.66a.5.5,0,0,1-.41-.22L40.25,49a.5.5,0,0,1,.08-.65L68.84,22.58a.5.5,0,0,1,.77.63L48.13,59.42a.5.5,0,0,1-.42.25ZM41.32,48.83l6.36,9.4L67.06,25.54Z"/></g></g></svg>