<svg xmlns="http://www.w3.org/2000/svg" viewBox="0 0 62.03 62.7"><defs><style>.cls-1{fill:#fff;}</style></defs><title>stage3</title><g id="Слой_2" data-name="Слой 2"><g id="Слой_1-2" data-name="Слой 1"><polygon class="cls-1" points="61.53 23.89 45.27 41.7 56.63 55.29 61.53 23.89"/><path d="M56.63,55.79a.5.5,0,0,1-.38-.18L44.88,42a.5.5,0,0,1,0-.66L61.16,23.55A.5.5,0,0,1,62,24l-4.9,31.4a.5.5,0,0,1-.36.4ZM45.93,41.72,56.3,54.12l4.47-28.67Z"/><polygon class="cls-1" points="25 0.5 45.27 41.7 61.53 23.89 25 0.5"/><path d="M45.27,42.21H45.2a.5.5,0,0,1-.38-.27L24.55.72a.5.5,0,0,1,.72-.64L61.8,23.47a.5.5,0,0,1,.1.76L45.64,42A.5.5,0,0,1,45.27,42.21Zm-19-40.32L45.39,40.83,60.76,24Z"/><polygon class="cls-1" points="22.66 62.2 45.27 41.7 56.63 55.29 22.66 62.2"/><path d="M22.66,62.7a.5.5,0,0,1-.34-.87L44.93,41.33a.5.5,0,0,1,.72,0L57,55a.5.5,0,0,1-.28.81l-34,6.9ZM45.22,42.43,24.35,61.34,55.71,55Z"/><polygon class="cls-1" points="25 0.5 10.52 23.89 45.27 41.7 25 0.5"/><path d="M45.27,42.21a.5.5,0,0,1-.23-.06L10.3,24.33a.5.5,0,0,1-.2-.71L24.57.24A.48.48,0,0,1,25,0a.5.5,0,0,1,.42.28l20.27,41.2a.5.5,0,0,1-.45.72Zm-34-18.52L44.15,40.57l-19.2-39Z"/><polygon class="cls-1" points="22.66 62.2 10.52 23.89 45.27 41.7 22.66 62.2"/><path d="M22.66,62.7l-.13,0a.5.5,0,0,1-.35-.33L10,24a.5.5,0,0,1,.7-.6L45.5,41.26a.5.5,0,0,1,.11.82L23,62.57A.5.5,0,0,1,22.66,62.7ZM11.36,24.88,22.9,61.3,44.4,41.82Z"/><polygon class="cls-1" points="25 0.5 0.5 21.99 10.52 23.89 25 0.5"/><path d="M10.52,24.39h-.09l-10-1.89a.5.5,0,0,1-.24-.87L24.67.12a.5.5,0,0,1,.75.64L10.95,24.15A.5.5,0,0,1,10.52,24.39ZM1.6,21.69l8.68,1.64L22.81,3.09Z"/><polygon class="cls-1" points="22.66 62.2 2.39 53.73 0.5 21.99 10.52 23.89 22.66 62.2"/><path d="M22.66,62.7a.5.5,0,0,1-.19,0L2.2,54.19a.5.5,0,0,1-.31-.43L0,22a.5.5,0,0,1,.59-.52l10,1.89a.5.5,0,0,1,.38.34L23.14,62a.5.5,0,0,1-.48.65ZM2.87,53.39l19,7.93-11.72-37L1,22.6Z"/></g></g></svg>