<svg xmlns="http://www.w3.org/2000/svg" viewBox="0 0 287.51 325.16"><defs><style>.cls-1{fill:#363636;}.cls-2{fill:#fff;}.cls-3{fill:#61a5aa;}</style></defs><title>logo-new</title><g id="Слой_2" data-name="Слой 2"><g id="Слой_1-2" data-name="Слой 1"><path class="cls-1" d="M132.91,150.66c5.12-2.32,3.68-4.27,7.14-6.39,6.7-4.1,8.34-7,8.73-9.45s4-4.54-.57-3.88l41.86-28.53,95.28,64.7-9,107.28L125,323.08Z"/><path class="cls-2" d="M125.65,325.16,122.8,323l7.93-172.42,1.28-1.89a6.73,6.73,0,0,0,3.55-2.91,9.74,9.74,0,0,1,3.35-3.35c6.34-3.87,7.45-6.28,7.72-7.94a7.78,7.78,0,0,1,1.28-3l-.92-2.37,41.86-28.53h2.46l95.27,64.7.95,2-9,107.28-1.5,1.89ZM135,152,127.3,320l146.94-47.28,8.81-104.56-93-63.15L152.6,130.59a3.91,3.91,0,0,1-.88,3.05,5.08,5.08,0,0,0-.78,1.52c-.62,3.9-3.54,7.18-9.75,11a5.42,5.42,0,0,0-2,2A10.28,10.28,0,0,1,135,152Z"/><path class="cls-1" d="M2.17,61l23-24.94,10.31,10s0,0,0,0,0,0,.06,0a36.69,36.69,0,0,1,4.65,9.18c2.34,6.43-2.39,5.22,5.37,9.86,7.32,4.37,18.18,9,18.23,8.42a265.55,265.55,0,0,0,18,25.48c7,8.71,13.89,19,21.06,26s12.15,14.29,14.5,12.51c0,0,0,0,.06,0-1,1.11-1,2.42.92,3.83,6,4.49,8.14,11.94,13.92,9.52l.58-.25L125,323.08,26.11,282.57Z"/><path class="cls-2" d="M124.15,325.1,25.29,284.59l-1.34-1.79L0,61.26l.57-1.72,23-24.95,3.12-.08L37.35,44.88a39.54,39.54,0,0,1,4.94,9.72,11.86,11.86,0,0,1,.81,5.64,4.91,4.91,0,0,0,0,.57c.1.15.75.8,3.66,2.53,6.64,4,15.81,7.93,17.19,8.18L63.65,73l2-.48A261.85,261.85,0,0,0,83.57,97.75c2.28,2.83,4.55,5.83,6.82,8.83,4.59,6.07,9.33,12.35,14.06,16.94,2.21,2.15,4.22,4.33,6,6.28,2.26,2.46,5.05,5.5,6.16,5.87l.12-.15,1.49,2.14,1.38.16-.57,1,.11.16c-.13-.07,0,.2.57.64a33.8,33.8,0,0,1,5.53,5.55c3.15,3.73,4.21,4.55,6.24,3.71l3.6,1.87-7.93,172.42ZM28.15,281l94.8,38.85,7.65-166.33c-3.75.25-6.35-2.8-8.68-5.55a29.94,29.94,0,0,0-4.81-4.87,5.44,5.44,0,0,1-2.39-3.52c-2.11-1-4.49-3.62-7.47-6.86-1.74-1.89-3.69-4-5.84-6.11-5-4.82-9.81-11.24-14.5-17.44-2.24-3-4.48-5.93-6.74-8.73a267.77,267.77,0,0,1-17.74-25c-5.59-1.4-17.8-8.34-17.94-8.42-4.75-2.84-6-4.05-5.74-7.21a7.62,7.62,0,0,0-.56-3.78A36.45,36.45,0,0,0,34,47.66l-8.7-8.45L4.45,61.78ZM116.6,135.69a.88.88,0,0,0-.48.17l.17.23ZM34.27,47.74l-.08.1Z"/><polygon class="cls-1" points="190.06 102.41 285.34 167.11 229.73 63.91 104.77 2.01 190.06 102.41"/><path class="cls-2" d="M284.11,168.92,188.4,103.82,103.11,3.42,105.74,0,230.7,62l1,.92,55.61,103.2Zm-92.58-68.15,87.65,59.52L228.14,65.56,113.29,8.66Z"/><path class="cls-1" d="M125.67,133.61c7.42-.2,5.22-.17,10,.5s8-2.51,12.54-3.18,1,1.39.57,3.88-2,5.36-8.73,9.45c-3.46,2.12-2,4.07-7.14,6.39l-.58.25c-5.78,2.41-7.91-5-13.92-9.52S125.67,133.61,125.67,133.61Z"/><path class="cls-2" d="M130.17,153.57c-3.55,0-6-2.92-8.25-5.57a29.94,29.94,0,0,0-4.81-4.87c-2.4-1.79-2.61-3.65-2.36-4.89.8-4,7.54-6,10.39-6.75l1.28-.09c5-.13,5.22-.14,7.32.2.54.09,1.23.2,2.23.34,2.24.32,4.13-.48,6.3-1.4a22.7,22.7,0,0,1,5.62-1.78c1.26-.19,3.37-.49,4.39,1.1s0,2.9-.56,3.76a5.08,5.08,0,0,0-.78,1.52c-.62,3.9-3.54,7.18-9.75,11a5.42,5.42,0,0,0-2,2,10.9,10.9,0,0,1-5.4,4.49l-.64.27A7.78,7.78,0,0,1,130.17,153.57Zm1.32-4.68,1.42,1.77-.9-2a6.73,6.73,0,0,0,3.55-2.91,9.74,9.74,0,0,1,3.35-3.35c6.34-3.87,7.45-6.28,7.72-7.94a5.75,5.75,0,0,1,.26-1,29.37,29.37,0,0,0-2.91,1.11c-2.42,1-5.16,2.17-8.6,1.7-1.06-.15-1.78-.27-2.34-.36-1.69-.28-1.68-.28-6.5-.15l-.57,0c-3.2.83-6.46,2.38-6.92,3.28.06,0,.23.24.67.57a33.75,33.75,0,0,1,5.53,5.55C128.4,148.92,129.46,149.74,131.49,148.9Z"/><path class="cls-3" d="M25.19,36.08,104.77,2l85.29,100.4-41.86,28.53c-4.58.67-7.73,3.84-12.54,3.18s-2.57-.7-10-.5l-.1,0c-.79.19-6.25,1.68-8.08,3.92,0,0-.06,0-.06,0-2.35,1.77-7.34-5.55-14.5-12.51s-14-17.26-21.06-26a265.55,265.55,0,0,1-18-25.48c-.05.61-10.91-4.05-18.23-8.42-7.76-4.64-3-3.43-5.37-9.86a36.69,36.69,0,0,0-4.65-9.18s-.06,0-.06,0,0,0,0,0Z"/><path class="cls-2" d="M116.61,140.12c-2.6,0-5.47-3.12-9.37-7.36-1.74-1.89-3.69-4-5.84-6.11-5-4.82-9.81-11.24-14.5-17.44-2.24-3-4.48-5.93-6.74-8.73a267.77,267.77,0,0,1-17.74-25c-5.59-1.4-17.8-8.34-17.94-8.42-4.75-2.84-6-4.05-5.74-7.21a7.62,7.62,0,0,0-.56-3.78A36.45,36.45,0,0,0,34,47.66l-10.3-10,.66-3.57L103.91,0l2.52.59L191.73,101l-.43,3.22-41.86,28.53-.91.36a18.69,18.69,0,0,0-4.55,1.48c-2.42,1-5.16,2.17-8.6,1.7-1.06-.15-1.78-.27-2.34-.36-1.69-.27-1.68-.27-6.5-.15H126c-2,.49-5.75,1.84-6.83,3.16l-.44.4A3.48,3.48,0,0,1,116.61,140.12ZM65.7,72.49A261.85,261.85,0,0,0,83.57,97.75c2.28,2.83,4.55,5.83,6.82,8.83,4.59,6.07,9.33,12.35,14.06,16.94,2.21,2.15,4.22,4.33,6,6.28,2.11,2.3,4.7,5.11,5.92,5.76,2.78-2.61,8.43-4,8.69-4v.05l1.34-.17c5-.13,5.22-.14,7.32.2.54.09,1.23.2,2.23.34,2.24.32,4.13-.48,6.3-1.4a24.21,24.21,0,0,1,5.1-1.69L186.83,102,104.15,4.65,29.06,36.8l8.28,8.08a39.54,39.54,0,0,1,4.94,9.72,11.86,11.86,0,0,1,.81,5.64,4.91,4.91,0,0,0,0,.57c.1.15.75.8,3.66,2.53,6.64,4,15.81,7.93,17.19,8.18L63.65,73ZM34.27,47.74l-.08.1Z"/><path class="cls-1" d="M117.49,137.56c1.83-2.24,7.29-3.73,8.08-3.92C124.83,133.92,119.68,135.9,117.49,137.56Z"/><path class="cls-2" d="M118.81,139.3l-3-3.12c2.47-3,9-4.59,9.27-4.66l1.27,4.17A40.34,40.34,0,0,0,118.81,139.3Z"/><path class="cls-1" d="M35.53,46.13s0,0,.06,0a36.69,36.69,0,0,1,4.65,9.18c1.46,4,.16,5.05.88,6.39h0s7.36,1.35,13.13.25,10.8-5.62,15.88-10.67,8.12-4.44,13.42-9.11,0-5.65,4.59-8.44,17.4-4.18,24.76-5.68,6.6-4.74,6.48-8.91L104.77,2,25.19,36.08l10.31,10S35.5,46.12,35.53,46.13Z"/><path class="cls-2" d="M49,64.63a51.11,51.11,0,0,1-8.31-.72L39.31,63a4.94,4.94,0,0,1-.56-3.1,7.65,7.65,0,0,0-.56-3.78A36.45,36.45,0,0,0,34,47.66l-10.3-10,.66-3.57L103.91,0l2.52.59L121,17.79l.52,1.35,0,.93c.16,3.76.35,8.43-8.26,10.18-2,.41-4.38.81-6.89,1.23-6.3,1.05-14.14,2.36-17.18,4.19a3,3,0,0,0-1,.82s0,.31,0,.51c.16,1.89,0,4-3.26,6.89a30.26,30.26,0,0,1-6.89,4.54,22.36,22.36,0,0,0-6.43,4.48c-5.05,5-10.52,10-17,11.26A30.64,30.64,0,0,1,49,64.63Zm-7.91-2.86h0Zm2-1.91a37.32,37.32,0,0,0,10.72,0c5.27-1,10.18-5.53,14.75-10.07a26.53,26.53,0,0,1,7.52-5.27,25.94,25.94,0,0,0,6-3.93c1.93-1.7,1.87-2.38,1.8-3.25-.14-1.71,0-3.54,3.1-5.43,3.75-2.26,11.35-3.53,18.71-4.75,2.46-.41,4.79-.8,6.74-1.2,5-1,4.91-2.2,4.77-5.73V20L104.15,4.65,29.06,36.8l8.28,8.08a39.54,39.54,0,0,1,4.94,9.72A11.93,11.93,0,0,1,43.13,59.86ZM34.27,47.74l-.08.1Zm3.44-1.4h0Z"/></g></g></svg>